<mxfile host="app.diagrams.net" modified="2024-04-23T13:33:33.425Z" agent="Mozilla/5.0 (Windows NT 10.0; Win64; x64) AppleWebKit/537.36 (KHTML, like Gecko) Chrome/123.0.0.0 Safari/537.36 Edg/123.0.0.0" etag="LJeaLQC4U1eU2sF67F_r" version="24.2.3" type="device">
  <diagram name="Страница — 1" id="oR4D3U_MNXL9pneDEq-s">
    <mxGraphModel dx="1571" dy="1551" grid="1" gridSize="10" guides="1" tooltips="1" connect="1" arrows="1" fold="1" page="1" pageScale="1" pageWidth="827" pageHeight="1169" math="0" shadow="0">
      <root>
        <mxCell id="0" />
        <mxCell id="1" parent="0" />
        <mxCell id="3Uw4bCDfF3RCXjcIqz_q-3" value="Сематическая процедура 2&amp;nbsp;" style="rounded=1;whiteSpace=wrap;html=1;fillColor=#d5e8d4;strokeColor=#82b366;" parent="1" vertex="1">
          <mxGeometry x="490" y="-140" width="120" height="60" as="geometry" />
        </mxCell>
        <mxCell id="3Uw4bCDfF3RCXjcIqz_q-4" value="Сематическая процедура 1&amp;nbsp;" style="rounded=1;whiteSpace=wrap;html=1;fillColor=#d5e8d4;strokeColor=#82b366;" parent="1" vertex="1">
          <mxGeometry x="360" y="-140" width="120" height="60" as="geometry" />
        </mxCell>
        <mxCell id="3Uw4bCDfF3RCXjcIqz_q-8" style="edgeStyle=orthogonalEdgeStyle;rounded=0;orthogonalLoop=1;jettySize=auto;html=1;exitX=0.5;exitY=1;exitDx=0;exitDy=0;" parent="1" source="3Uw4bCDfF3RCXjcIqz_q-5" target="3Uw4bCDfF3RCXjcIqz_q-6" edge="1">
          <mxGeometry relative="1" as="geometry" />
        </mxCell>
        <mxCell id="3Uw4bCDfF3RCXjcIqz_q-12" value="$ Б" style="edgeLabel;html=1;align=center;verticalAlign=middle;resizable=0;points=[];" parent="3Uw4bCDfF3RCXjcIqz_q-8" connectable="0" vertex="1">
          <mxGeometry x="-0.2379" y="3" relative="1" as="geometry">
            <mxPoint x="-13" y="5" as="offset" />
          </mxGeometry>
        </mxCell>
        <mxCell id="3Uw4bCDfF3RCXjcIqz_q-5" value="S" style="ellipse;whiteSpace=wrap;html=1;aspect=fixed;fillColor=#d5e8d4;strokeColor=#82b366;" parent="1" vertex="1">
          <mxGeometry x="400" y="-310" width="40" height="40" as="geometry" />
        </mxCell>
        <mxCell id="3Uw4bCDfF3RCXjcIqz_q-9" style="edgeStyle=orthogonalEdgeStyle;rounded=0;orthogonalLoop=1;jettySize=auto;html=1;exitX=0.5;exitY=1;exitDx=0;exitDy=0;entryX=0.5;entryY=0;entryDx=0;entryDy=0;" parent="1" source="3Uw4bCDfF3RCXjcIqz_q-6" target="3Uw4bCDfF3RCXjcIqz_q-4" edge="1">
          <mxGeometry relative="1" as="geometry" />
        </mxCell>
        <mxCell id="3Uw4bCDfF3RCXjcIqz_q-19" value="Разделитель, операция" style="edgeLabel;html=1;align=center;verticalAlign=middle;resizable=0;points=[];" parent="3Uw4bCDfF3RCXjcIqz_q-9" connectable="0" vertex="1">
          <mxGeometry x="-0.1421" y="-1" relative="1" as="geometry">
            <mxPoint x="61" y="9" as="offset" />
          </mxGeometry>
        </mxCell>
        <mxCell id="3Uw4bCDfF3RCXjcIqz_q-13" style="edgeStyle=orthogonalEdgeStyle;rounded=0;orthogonalLoop=1;jettySize=auto;html=1;exitX=1;exitY=0.5;exitDx=0;exitDy=0;entryX=0;entryY=0.5;entryDx=0;entryDy=0;" parent="1" source="3Uw4bCDfF3RCXjcIqz_q-6" target="3Uw4bCDfF3RCXjcIqz_q-7" edge="1">
          <mxGeometry relative="1" as="geometry">
            <mxPoint x="510.0000000000002" y="-209.9310344827586" as="targetPoint" />
          </mxGeometry>
        </mxCell>
        <mxCell id="3Uw4bCDfF3RCXjcIqz_q-14" value="Ц" style="edgeLabel;html=1;align=center;verticalAlign=middle;resizable=0;points=[];" parent="3Uw4bCDfF3RCXjcIqz_q-13" connectable="0" vertex="1">
          <mxGeometry x="-0.2461" y="2" relative="1" as="geometry">
            <mxPoint x="6" y="-8" as="offset" />
          </mxGeometry>
        </mxCell>
        <mxCell id="3Uw4bCDfF3RCXjcIqz_q-6" value="q1" style="ellipse;whiteSpace=wrap;html=1;aspect=fixed;fillColor=#d5e8d4;strokeColor=#82b366;" parent="1" vertex="1">
          <mxGeometry x="400" y="-230" width="40" height="40" as="geometry" />
        </mxCell>
        <mxCell id="3Uw4bCDfF3RCXjcIqz_q-18" style="edgeStyle=orthogonalEdgeStyle;rounded=0;orthogonalLoop=1;jettySize=auto;html=1;exitX=0.5;exitY=1;exitDx=0;exitDy=0;entryX=0.5;entryY=0;entryDx=0;entryDy=0;" parent="1" source="3Uw4bCDfF3RCXjcIqz_q-7" target="3Uw4bCDfF3RCXjcIqz_q-3" edge="1">
          <mxGeometry relative="1" as="geometry" />
        </mxCell>
        <mxCell id="3Uw4bCDfF3RCXjcIqz_q-7" value="q2" style="ellipse;whiteSpace=wrap;html=1;aspect=fixed;fillColor=#d5e8d4;strokeColor=#82b366;" parent="1" vertex="1">
          <mxGeometry x="530" y="-230" width="40" height="40" as="geometry" />
        </mxCell>
        <mxCell id="3Uw4bCDfF3RCXjcIqz_q-10" style="edgeStyle=orthogonalEdgeStyle;rounded=0;orthogonalLoop=1;jettySize=auto;html=1;exitX=0;exitY=1;exitDx=0;exitDy=0;entryX=0;entryY=0;entryDx=0;entryDy=0;" parent="1" source="3Uw4bCDfF3RCXjcIqz_q-6" target="3Uw4bCDfF3RCXjcIqz_q-6" edge="1">
          <mxGeometry relative="1" as="geometry">
            <Array as="points">
              <mxPoint x="360" y="-196" />
              <mxPoint x="360" y="-224" />
            </Array>
          </mxGeometry>
        </mxCell>
        <mxCell id="3Uw4bCDfF3RCXjcIqz_q-11" value="Б" style="edgeLabel;html=1;align=center;verticalAlign=middle;resizable=0;points=[];" parent="3Uw4bCDfF3RCXjcIqz_q-10" connectable="0" vertex="1">
          <mxGeometry x="0.0219" y="-2" relative="1" as="geometry">
            <mxPoint x="-12" y="1" as="offset" />
          </mxGeometry>
        </mxCell>
        <mxCell id="3Uw4bCDfF3RCXjcIqz_q-16" style="edgeStyle=orthogonalEdgeStyle;rounded=0;orthogonalLoop=1;jettySize=auto;html=1;exitX=1;exitY=0;exitDx=0;exitDy=0;entryX=1;entryY=1;entryDx=0;entryDy=0;" parent="1" source="3Uw4bCDfF3RCXjcIqz_q-7" target="3Uw4bCDfF3RCXjcIqz_q-7" edge="1">
          <mxGeometry relative="1" as="geometry">
            <Array as="points">
              <mxPoint x="610" y="-224" />
              <mxPoint x="610" y="-196" />
            </Array>
          </mxGeometry>
        </mxCell>
        <mxCell id="3Uw4bCDfF3RCXjcIqz_q-17" value="Б Ц" style="edgeLabel;html=1;align=center;verticalAlign=middle;resizable=0;points=[];" parent="3Uw4bCDfF3RCXjcIqz_q-16" connectable="0" vertex="1">
          <mxGeometry x="-0.0679" y="3" relative="1" as="geometry">
            <mxPoint x="7" y="4" as="offset" />
          </mxGeometry>
        </mxCell>
        <mxCell id="3Uw4bCDfF3RCXjcIqz_q-20" value="Разделитель, операция" style="edgeLabel;html=1;align=center;verticalAlign=middle;resizable=0;points=[];" parent="1" connectable="0" vertex="1">
          <mxGeometry x="620" y="-160.00068965517255" as="geometry" />
        </mxCell>
        <mxCell id="3Uw4bCDfF3RCXjcIqz_q-21" value="" style="shape=image;verticalLabelPosition=bottom;labelBackgroundColor=default;verticalAlign=top;aspect=fixed;imageAspect=0;image=data:image/png,iVBORw0KGgoAAAANSUhEUgAAAgcAAAMfCAYAAABCU3R5AAAgAElEQVR4Aey9CbgdVZW3XzcQEiAQZhIIEsYQbkJIYkBCSK6CBEgCJIhjI0or8yA4IYIm0P3Xr2VoBv+NjyLN0AK2Msko3WIYlACmAYc4EPxEEaVBppCRZH3PPte6qXPuvjWuXbXrnPc8z+Wc2sPaa71rU+uXqjMEwgMCEIAABCAAAQhECASR17yEAAQgAAEIQAACgjhgE0AAAhCAAAQg0EQAcdCEgwMIQAACEIAABBAH7AEIQAACEIAABJoIIA6acHAAAQhAAAIQgADigD0AAQhAAAIQgEATAcRBEw4OIAABCEAAAhBAHLAHIAABCEAAAhBoIoA4aMLBAQQgAAEIQAACiAP2AAQgAAEIQAACTQQQB004OIAABCAAAQhAAHHAHoAABCAAAQhAoIkA4qAJBwcQgAAEIAABCCAO2AMQgAAEIAABCDQRQBw04eAAAhCAAAQgAAHEAXsAAhCAAAQgAIEmAoiDJhwcQAACEIAABCCAOGAPQAACEIAABCDQRABx0ISDAwhAAAIQgAAEEAfsAQhAAAIQgAAEmgh4JQ6CoNmd1uMmzzmAAAQgAAEIQMAJgeZqnGKJKVOmSE9Pj5M/IwaitluPo311eG1Y8YAABCAAAQjUjUBmcbD33ns7i7H1SkHrsbOFHRl2ycqRy5iFAAQgAAEICOLA4SZAHDiEi2kIQAACEHBGAHHgDK0I4sAhXExDAAIQgIAzAogDZ2gRBw7RYhoCEIAABBwS8E4cmPcZtP45jN+paa4cOMWLcQhAAAIQcETAK3Fgi7HOb0pEHNgyShsEIAABCPhOAHHgMEOIA4dwMQ0BCEAAAs4IIA6coeU9Bw7RYhoCEIAABBwS8F4cOIzduWmuHDhHzAIQgAAEIOCAAOLAAdTQJOIgJMEzBCAAAQjUiQDiwGG2EAcO4WIaAhCAAAScEUAcOEPLew4cosU0BCAAAQg4JIA4cAiXKwcO4WIaAhCAAAScEUAcOEPLlQOHaDENAQhAAAIOCSAOHMLlyoFDuJiGAAQgAAFnBBAHztBy5cAhWkxDAAIQgIBDAogDh3C5cuAQLqYhAAEIQMAZAcSBM7RcOXCIFtMQgAAEIOCQAOLAIVyuHDiEi2kIQAACEHBGAHHgDC1XDhyixTQEIAABCDgkgDhwCJcrBw7hYhoCEIAABJwRQBw4Q8uVA4doMQ0BCEAAAg4JIA4cwuXKgUO4mIYABCAAAWcEEAfO0HLlwCFaTEMAAhCAgEMCiANFuL/+9a9l/pfPl9mHTZWJ43eWkdtvJhPHj5JZh06WC75wkixevFhxNUxBAAIQgAAE3BBAHChwXbRokUw7YJy8d9p28u35Q2TpHYGs+mkg8mQgqx8L5Pd3BnLDhYHMPXgTmbD3tnLLf/z/CqtiAgIQgAAEIOCGAOKgANc1a9bIaSd/RKZP2VKevqlXDBhBEPf3wr2BnHDUBjJtv1Hy3NJfF1idqRCAAAQgAAE3BBAHObkuX75c5hy+v3z5pCGxYmAgofDINYF0776JLPzv23N6wDQIQAACEICAGwKIg5xc587eX6747KBcwiAUDH+4K5CJY4fIwh/dmdMLpkEAAhCAAAT0CSAOcjC98tJz5RNzBxcSBlGBYK4gPLf0tzk8YQoEIAABCEBAnwDiICPTP//5TzJ+z6Gy/NH49xaExT/N86PfDmTafqMzesJwCEAAAhCAgBsCiIOMXM85daZct0BPGITi4YSjN5JbvvOtjN4wHAIQgAAEIKBPAHEgIuZTB2key5Ytk713GyJrFqUTB+aTCce8J5AtNw9k2CaBHHtIIC/eb59rxu7bPTKNG40xaX1ObZCBEIAABCAAgb8TQByIyE033SQnnniiPPXUU7Eb465br5azPmQv7uEVgOjz1H0CufScQF77ce/f548P5OD9Bp4/95AtY78oafXq1fLd735XjjrqKPnrX/8a6yudEIAABCAAgbwEEAcism7dOjnggAMkCAKZOnWqfOc735FVq1b1Y3rGJw6Se64YuLhHhYHt9esLA9l4yMDzb7yoS84/75x+677wwgvy5S9/WUaOHNnw8corr+w3hgYIQAACEICAFgHEwd9Jmq823mCDDRrF14iE7bffXs477zz54x//2Mf64AN3kj/f17+4/+WHgcyYFMgO2wZy40VBw0ZUHKx7IpC//jCQy84J5AOH9p8fjjXfrDj78Gl96z344IPyvve9TwYPHtzn17777itvv/123xheQAACEIAABLQJIA4iRE899dS+ImwEgvkzguHoo4+W+++/X/bZa7j1/QbHHRHI9Rf23jr4yOH9xcGR03vfc7DpxoH89NqBxcHKnwQyYdxoueqqq6S7u7ufL11dXfLoo49GPOYlBCAAAQhAQJ9AZnEwZcoU6enpacu/nXfeuV9BNgLBxHzttdfK2N02t363wXZbBbLs4d6i/5tb+4sDc2Xg7ccDOeMDgYzffWBxYMbtsetIOffcc2W77bbr54sRKu3Mv133FXG15/mCvJJXH/eAqRFr164trBYyi4PCK3pq4Le//a0MGTKkryAPHTpUPvaxj8kTTzzR5/E+Y7e2XjnYaHAgax/vLfrmB5eMoAhvFUSfX30wEDM22hZ9veIngUzad0xjPfOeh//4j//oey9EeCVj+vTpff7wAgIQgAAEIBAlMG7cOMRBFEjR1zNnzmwU9V122UW+9rWvycsvv9zP5CHT9xDzkcNoQTevd9khEPNmQ/P6+bsHFgf/+1+BvGNE//mhvWdvD2TOrPf2W9e8H+KTn/ykbLzxxg0fb7jhhn5jaIAABCAAAQggDhT3wG233SazZs2Su+66q/HJhYFMn33GP8jtl/Qv7uYjilefF8gbDwVy8jHrxcGEPQP57ld7f775zYcC+cLHA1lwUv/5oTi45qJRsmDBgoGWl1dffVUuu+wyMVcPXn/99QHH0QEBCEAAAp1JAHGgmPc333wzlbX/+q//khPft1m/Kwfm/QbmUwjDhwVy0SnrxcHvbgvksKm9b0bccbtALvhEYL0tEYqDQ2fsKkuWLEnlS1qfUxljEAQgAAEItAUBxEEFaTTvAxi7x/aNKwRhQbc9D/SeA9vYsO3pW4bItAOnVBAVS0IAAhCAQLsQQBxUlMnLLr1Y5p+6Zb+rB2GRN89ZxYH5HoTp++8kixYtqigqloUABCAAgXYggDioKIsrV66UCeN3k6dvHvgnm7OKg/mnbS+nn3ZSRRGxLAQgAAEItAsBxEGFmfz5z38u48fuKC89MPCbC6NXEuJeX/H5YTJn1iGpf/ypwrBZGgIQgAAEPCeAOKg4Qffdd5+M33uUPH3zRrG3GAYSBm89EsgnjtlCJuyzlyxfvrziaFgeAhCAAATagQDiwIMsmisIE8bvIfNP267vew4GEgNhu/m55+sWdMn4MVvIlZf/i+y9994eRIILEIAABCDQDgQQB55k0bwH4bLLLpWxe+4gnzx2u8b3IPzhrubbDeaLke69IpAzPzRYRmw7VM458zh58cUXGxEgDjxJJG5AAAIQaAMCiAPPkmg+5mi+B+HTZ58kPQfuLeP22l52HDFMuvfcVnqm7iFnnnyU3H3XbbLXXns1eY44aMLBAQQgAAEIFCCAOCgAr6yptsLf2tZ6XJZvrAMBCEAAAu1HAHFQg5zaCn9rW+txDcLCRQhAAAIQ8JQA4sDTxETdshX+1rbW4+h8XkMAAhCAAASyEEAcZKFV0Vhb4W9taz2uyFWWhQAEIACBNiCAOKhBEm2Fv7Wt9bgGYeEiBCAAAQh4SgBx4Gliom7ZCn9rW+txdD6vIQABCEAAAlkIIA6y0KporK3wt7a1HlfkKstCAAIQgEAbEEAc1CCJtsLf2tZ6XIOwcBECEIAABDwlgDjwNDFRt2yFv7Wt9Tg6n9cQgAAEIACBLAQQB1loVTTWVvhb21qPK3KVZSEAAQhAoA0IIA5qkERb4W9taz2uQVi4CAEIQAACnhJAHHiamKhbtsLf2tZ6HJ3PawhAAAIQgEAWAoiDLLQqGmsr/K1trccVucqyEIAABCDQBgQQBzVIoq3wt7a1HtcgLFyEAAQgAAFPCSAOPE1M1C1b4W9taz2Ozuc1BCAAAQhAIAsBxEEWWhWNtRX+1rbW44pcZVkIQAACEGgDAoiDGiTRVvhb21qPaxAWLkIAAhCAgKcEEAeeJibqlq3wt7a1Hkfn8xoCEIAABCCQhQDiIAutisbaCn9rW+txRa6yLAQgAAEItAEBxEENkmgr/K1trcc1CAsXIQABCEDAUwKIA08TE3XLVvhb21qPo/N5DQEIQKDOBAYNGiRr166V8NkWS9gXPtvG0JaeAOIgPavKRtoKf2tb63FlzrIwBCAAAWUCw4cPb4iD8NlmPuwLn21jaEtPAHGQnlVlI22Fv7Wt9bgyZ1kYAhCAgDKBY445RtatWyfhs8182Bc+28bQlp4A4iA9q8pG2gp/a1vrcWXOsjAEIAABCNSeAOKgBim0Ff7WtilTpkhPTw9/MGAPsAfYA4p7wJxbzfsdOu2BOKhBxluFgHHZ1laDUHARAhCAQK0IaBXJWgUtIlpxB3ULvE7+2oSAra1OMeErBCAAgToQ0CqSdYg16qNW3IiDKFXl1zYhYGtTXhZzEIAABDqegFaRrBtIrbgRBw4zbxMCtjaHLmAaAhCAQEcS0CqSdYOnFTfiwGHmbULA1ubQBUxDAAIQ8IpAWV92pFUkvYKXwhmtuBEHKWDnHWITAra2vPaZBwEIQAACdgJaRdJu3d9WrbgRBw5zbBMCtjaHLmAaAhCAQEcS0CqSdYOnFTfiwGHmbULA1ubQBUxDAAIQ6EgCWkWybvC04kYcOMy8TQjY2hy6gGkIQAACHUlAq0jWDZ5W3IgDh5m3CQFbm0MXMA0BCECgIwloFcm6wdOKG3HgMPM2IWBrc+gCpiEAAQh0JAGtIlk3eFpxIw4cZt4mBGxtDl3ANAQgAIGOJKBVJOsGTytuxIHDzNuEgK3NoQuYhgAEINCRBLSKZN3gacWNOHCYeZsQsLU5dAHTEIAABDqSgFaRrBs8rbgRBw4zbxMCtjaHLmAaAhCAQNsTWLdunaxYsaIpzmiRNP3Lly9v6m/Xg2jcRWJEHBShlzDXJgRsbQlm6IYABCAAgQQCH/3oR+X2228XIwTMIyySP/vZz2TWrFny1ltvJVhoj+4w7qLRIA6KEoyZbxMCtrYYE3RBAAIQgEAKAjfddJN0dXXJEUccIb/73e9k7Nixcsopp8iGG24oZ599dp9oSGGq1kMQBzVIn00I2NpqEAouQgACEPCawKpVq2SHHXaQIAhk6NChssEGGzRemx96+s1vfuO175rOIQ40aTqyZRMCtjZHy2MWAhCAQEcRuOCCCxpXD4xACP9mzpwpa9eu7RgOiIMapNomBGxtNQgFFyEAAQh4T+D555+XjTbaqE8YGIFwxx13dMwtBZMgxIH321TEJgRsbTUIBRchAAEI1ILAvHnz+q4ejB49WtasWVMLv7WcRBxokXRoxyYEbG0OXcA0BCAAgY4i8N///d9i3mdgrhp85Stf6airBibRiIMabHebELC11SAUXIQABCBQCwLmo4zmPGvelPiXv/ylFj5rOok40KTpyJZNCNjaHC2PWQhAAAIdSeCKK66Q4447ruOuGphkIw5qsOVtQsDWVoNQcBECEICA1wQWL14sX/rSl2TWETNln3F7yW67jJKJ+46X2bNny/z582XJkiVe+6/lHOJAi6RDOzYhYGtz6AKmIQABCLQ1ge/ecrPsO34XmTvzHXL9Pw2T398ZyOrHApEnA1n100CW/mCoXPvVfeXQd3fLtGkHyGOPPdbWPBAHNUivTQjY2moQCi5CAAIQ8IrAc889Jwcd0C0nzNtS/nRPrxgwgiDu7+n/3FpmTN1DTjvtZFm9erVX8Wg5gzjQIunQjk0I2NocuoBpCEAAAm1HYOGPH5RxY7aWh78VLwYGEgrzz9hF5sw+rC1/bwFxUIPtbhMCtrYahIKLEIAABLwgsPDH/y2TujeX//uDfMIgFAxXnretzDvqMFm3rr2+PRFx4MU2jXfCJgRsbfFW6IUABCAAAUPA3EoYN2arwsIgFAifPHYbufLyS9rqUw2Igxr8v2ITAra2GoSCixCAAAQqJzD9gDHyyDXFrhiEwsA8L380kAljt5I//elPlcem5QDiQIukQzs2IWBrc+gCpiEAAQi0BYHv3nKD/OPcTWXdE3riwAiE6y/cQM458/i2uXqAOKjBdrcJAVtbDULBRQhAAAKVEpi0z6jUn0qIXh1Ier1mUSDj9txc3njjjUrj01occaBF0qEdmxCwtTl0AdMQgAAEak/AfMHRvPdulfuqwcPfDGRQVyBrH7dfdfjURwbLD+78fltcPUAc1GC724SAra0GoeAiBCAAgcoIXPDFs+XGiwblFgezDwqkKxhYHNx7RSBnnjS7LT65gDiobJumX9gmBGxt6S0yEgIQgEDnEZhz+FR59nb7v/qTbhs8fn0g/3BEIF0xVw7+fF8gh0zfXdaurf/HGhEHNfj/wyYEbG01CAUXIQABCFRGYPK+uzQ+WWATAn/5YSA9kwPZYdtAbriwvwg4uieQn90Yf1vBvO9g3723QRxEMhxEXvNSmYBNCNjalJfFHAQgAIG2IjBu7I6ydoBPKXx0ViDXXRjIqz/uf4XgmZsDee/+QWPuoEED31YwomPcnlsgDiK7BnEQgaH90iYEbG3a62IPAhCAQDsReOfE3eWtR+23FUZsHcgbD/X2/ebW5isEH5oZyN2XB7LuyUDixEHvlYPtEAeRTYM4iMDQfmkTArY27XWxBwEIQKCdCBw5a7r87ja7OBg6JJA1kV9hDEXAb28NZJ89Ann7759QCNtttyZeuDeQ984YgziIbBrEQQSG9kubELC1aa+LPQhAAALtRODCBV+Sa7481Ppphd127L2lYIr+83evv0Jg3mtg3oQYBM1/to8z3nFpIOec8WE+yhjZNIiDCAztlzYhYGvTXhd7EIAABNqJwJIlS2TmQSOt4uDcjwVy9XmBvL4wkFPe1/8NieGVgrgrBycdO0weeOABxEFk0yAOIjC0X9qEgK1Ne13sQQACEGg3AtOnjpOnvtP/1sKyhwP54MxAthgWyIUnZxcH5v0K3XtuKytWrGgLZHyUsQZptAkBW1sNQsFFCEAAApUSWLRokczYb4sBv+UwzRWCcEz0ecGpw+SyS7/SFlcNTIIQB5Vu03SL24SArS2dNUZBAAIQ6GwCZ5zyIZl/0kbW2wthwY+7fRCOCZ+fvimQfce/Q5YvX942YBEHNUilTQjY2moQCi5CAAIQqJzAmjVr5MjD3ymXf7ZrQIGQVhy89ID5ueZt5Jlnnq48Lk0HEAeaNB3ZsgkBW5uj5TELAQhAoO0ImH/lz5s1ST5x9CAx7zcIrwJkeTZXDPYZu7Xce+89bXM7IUw04iAk4fGzTQjY2jwOAdcgAAEIeEngqkvOkH32HCz/Pj+Q1X//noMkgWA+0bDg5MGyb/eotrtiECYJcRCS8PjZJgRsbR6HgGsQgAAEvCXw4gvPyqdPnip77zpIzvhgIPdc0ftdB1GR8Ie7Arn9kkBOnDtIxu6+hVz6tS+3zScTbIlBHNioeNZmEwK2Ns/cxh0IQAACtSKw7M1X5O7v/ZOcdcK+0rP/VtK9+1DZcbvBMm6PTaXnXTvIp087Qh64/w5ZuXJlreLK4yziIA+1kufYhICtrWS3WA4CEIBA2xPQKpJ1A6UVN1+C5DDzNiFga3PoAqYhAAEIdCQBrSJZN3hacSMOHGbeJgRsbQ5dwDQEIACBjiSgVSTrBk8rbsSBw8zbhICtzaELmIYABCDQkQS0imTd4GnFjThwmHmbELC1OXQB0xCAAAQ6koBWkawbPK24EQcOM28TArY2hy5gGgIQgEBHEtAqknWDpxU34sBh5m1CwNbm0AVMQwACEOhIAlpFsm7wtOJGHDjMvE0I2NocuoBpCEAAAh1JQKtI1g2eVtyIA4eZtwkBW5tDFzANAQhAoCMJaBXJusHTihtx4DDzNiFga3PoAqYhAAEIdCQBrSJZN3hacSMOHGbeJgRsbQ5dwDQEIACBjiSgVSTrBk8rbsSBw8zbhICtzaELmIYABCDQkQS0imTd4GnFjThwmHmbELC1OXQB0xCAAAQ6koBWkawbPK24EQcOM28TArY2hy5gGgIQgEBHEtAqknWDpxU34sBh5m1CwNbm0AVMQwACEOhIAlpFsm7wtOJGHDjMvE0I2NocuoBpCEAAAh1JQKtI1g2eVtyIA4eZtwkBW5tDFzANAQhAoCMJaBXJusHTihtx4DDzNiFga3PoAqYhAAEIdCQBrSJZN3hacSMOHGbeJgRsbQ5dwDQEIACBjiSgVSTrBk8rbsSBw8zbhICtzaELmIYABCDQkQS0imTd4GnFjThwmHmbELC1OXQB0xCAAAQ6koBWkawbPK24EQcOM28TArY2hy5gGgIQgEBHEtAqknWDpxU34sBh5m1CwNbm0AVMQwACEOhIAlpFsm7wtOJGHDjMvE0I2NocuoBpCEAAAh1JQKtI1g2eVtyIA4eZtwkBW5tDFzANAQhAoCMJaBXJusHTihtx4DDzNiFga3PoAqYhAAEIdCQBrSJZN3hacSMOHGbeJgRsbQ5dwDQEIACBjiSgVSTrBk8rbsSBw8zbhICtzaELmIYABCDQkQS0imTd4GnFjThwmHmbELC1OXQB0xCAAAQ6koBWkawbPK24EQcOM28TArY2hy5gGgIQgEBHEtAqknWDpxU34sBh5m1CwNbm0AVMQwACEOhIAlpFsm7wtOJGHDjMvE0I2NocuoBpCEAAAh1JQKtI1g2eVtyIA4eZtwkBW5tDFzANAQhAoCMJaBXJusHTihtx4DDzNiFga3PoAqYhAAEIdCQBrSJZN3hacSMOHGbeJgRsbQ5dwDQEIACBjiSgVSTrBk8rbsSBw8zbhICtzaELmIYABCDQkQS0imTd4GnFjThwmHmbELC1OXQB0xCAAAQ6hsCgQYNk7dq1jXhNkQyCoO+4UyAgDmqQaZsQsLXVIBRchAAEIOA9AcSBCOLA+20qYhMCtrYahIKLEIAABLwngDhAHHi/SY2DNiFga6tFMDgJAQhAwHMCiAPEgedbtNc9mxCwtdUiGJyEAAQg4DkBxAHiwPMt2uueTQjY2moRDE5CAAIQ8JwA4gBx4PkW7XXPJgRsbbUIBichAAEIeE7AiAPzCYXWv/ATDJ67r+Ieb0hUwejWiE0I2NrceoF1CEAAAp1HICyS0asJnUAhjLtorHzPQVGCMfNtQsDWFmOCLghAAAIQyEEgLJKIgxzwRARxkI9bqlk2IWBrS2WMQRCAAAQgkJoA4iA1KutAxIEVi06jTQjY2nRWwwoEIAABCIQEQnEQHnfKs1bciAOHO8YmBGxtDl3ANAQgAIGOJKBVJOsGTytuxIHDzNuEgK3NoQuYhgAEINCRBLSKZN3gacWNOHCYeZsQsLU5dAHTEIAABDqSgFaRrBs8rbgRBw4zbxMCtjaHLmAaAhCAQEcS0CqSdYOnFTfiwGHmbULA1ubQBUxDAAIQ6EgCWkWybvC04kYcOMy8TQjY2hy6gGkIQAACHUlAq0jWDZ5W3IgDh5m3CQFbm0MXMA0BCECgIwloFcm6wdOKG3HgMPM2IWBrc+gCpiEAAQh0JAGtIlk3eFpxIw4cZt4mBGxtDl3ANAQgAIGOJKBVJOsGTytuxIHDzNuEgK3NoQuYhgAEINCRBLSKZN3gacWNOHCYeZsQsLU5dAHTEIAABDqSgFaRrBs8rbgRBw4zbxMCtjaHLmAaAhCAQEcS0CqSdYOnFTfiwGHmbULA1ubQBUxDAAIQ6EgCWkWybvC04kYcOMy8TQjY2hy6gGkIQAACHUlAq0jWDZ5W3IgDh5m3CQFbm0MXMA0BCECgIwloFcm6wdOKG3HgMPM2IWBrc+gCpiEAAQh0JIGkIrn//vtLT09PqX9TpkyRtWvXOs1HUtxpF0ccpCWVY5xNCNjacphmCgQgAAEIxBBIKpJJ/TGmc3eVsabWGoiD3GlOnmgTAra2ZEuMgAAEIACBLASSimRSf5a10o4tY02tNRAHabOaY5xNCNjacphmCgQgAAEIxBBIKpJJ/TGmc3eVsabWGoiD3GlOnmgTAra2ZEuMgAAEIACBLASSimRSf5a10o4tY02tNRAHabOaY5xNCNjacphmCgQgAAEIxBBIKpJJ/TGmc3eVsabWGoiD3GlOnmgTAra2ZEuMgAAEIACBLASSimRSf5a10o4tY02tNRAHabOaY5xNCNjacphmCgQgAAEIxBBIKpJJ/TGmc3eVsabWGoiD3GlOnmgTAra2ZEuMgAAEIACBLASSimRSf5a10o4tY02tNRAHabOaY5xNCNjacphmCgQgAAEIxBBIKpJJ/TGmc3eVsabWGoiD3GlOnmgTAra2ZEuMgAAEIACBLASSimRSf5a10o4tY02tNRAHabOaY5xNCNjacphmCgQgAAEIxBBIKpJJ/TGmc3eVsabWGoiD3GlOnmgTAra2ZEuMgAAEIACBLASSimRSf5a10o4tY02tNRAHabOaY5xNCNjacphmCgQgAAEIxBBIKpJJ/TGmc3eVsabWGoiD3GlOnmgTAra2ZEuMgAAEIACBLASSimRSf5a10o4tY02tNRAHabOaY5xNCNjacphmCgQgAAEIxBBIKpJJ/TGmc3eVsabWGoiD3GlOnmgTAra2ZEuMgAAEIACBLASSimRSf5a10o4tY02tNRAHabOaY5xNCNjacphmCgQgAAEIxBBIKpJJ/TGmc3eVsabWGoiD3GlOnmgTAra2ZEuMgAAEIACBLASSimRSf5a10o4tY02tNRAHabOaY5xNCNjacphmCgQgAAEIxBBIKpJJ/TGmc3eVsabWGoiD3GlOnmgTAra2ZEuMgAAEIE5Tof8AACAASURBVACBLASSimRSf5a10o4tY02tNRAHabOaY5xNCNjacphmCgQgAAEIxBBIKpJJ/TGmc3eVsabWGoiD3GlOnmgTAra2ZEuMgAAEIACBLASSimRSf5a10o4tY02tNRAHabOaY5xNCNjacphmCgQgAAEIxBBIKpJJ/TGmc3eVsabWGoiD3GlOnmgTAra2ZEuMgAAEIACBLASSimRSf5a1ksYOGjRI1q5dK+Ga4XHSvDz94Rp55kbnIA6iNJRf24SArU15WcxBAAIQ6HgCSUUyqV8TYCgGwjXDY801QlvhGuFx3mfEQV5yKebZhICtLYUphkAAAhCAQAYCSUUyqT/DUolDQzEQrhkeJ07MMSBcI8fUpimIgyYcugc2IWBr010VaxCAAAQgkFQkk/o1CYZiIFwzPNZcI7QVrhEe531GHOQll2KeTQjY2lKYYggEIAABCGQgkFQkk/ozLJU4NBQD4ZrhceLEHAPCNXJMbZqCOGjCoXtgEwK2Nt1VsQYBCEAAAklFMqlfk2AoBsI1w2PNNUJb4Rrhcd5nxEFecinm2YSArS2FKYZAAAIQgEAGAklFMqk/w1KJQ40YCIKg35/5BIP2QysuxIF2ZiL2bELA1haZwksIQAACEFAgkFQkk/oVXOhnIrqmq6sH0TX6OZChAXGQAVbWoTYhYGvLapfxEIAABCAQTyCpSCb1x1vP1xtdE3GQj2FbzLIJAVtbWwRLEBCAAAQ8IhAtxDa3kvptc4q2RddEHBSlWeP5NiFga6txiLgOAQhAwEsC0UJsczCp3zanaFsZa2qtwW2FotmOmW8TAra2GBN0QQACEIBADgJJRTKpP8eSiVPKWFNrDcRBYjrzD7AJAVtb/hWYCQEIQAACNgJJRTKp32azaFsZa2qtgTgomu2Y+TYhYGuLMUEXBCAAAQjkIJBUJJP6cyyZOKWMNbXWQBwkpjP/AJsQsLXlX4GZEIAABCBgI5BUJJP6bTaLtpWxptYaiIOi2Y6ZbxMCtrYYE3RBAAIQgEAOAklFMqk/x5KJU8pYU2sNxEFiOvMPsAkBW1v+FZgJAQhAAAI2AklFMqnfZrNoWxlraq2BOCia7Zj5NiFga4sxQRcEIAABCOQgkFQkk/pzLJk4pYw1tdZAHCSmM/8AmxCwteVfgZkQgAAEIGAjkFQkk/ptNou2lbGm1hqIg6LZjplvEwK2thgTdEEAAhCAQA4CSUUyqT/HkolTylhTaw3EQWI68w+wCQFbW/4VmAkBCEAAAjYCSUUyqd9ms2hbGWtqrYE4KJrtmPk2IWBrizFBFwQgAAEI5CCQVCST+nMsmTiljDW11kAcJKYz/wCbELC15V+BmRCAAAQgYCOQVCST+m02i7aVsabWGoiDotmOmW8TAra2GBN0QQACEIBADgJJRTKpP8eSiVPKWFNrDcRBYjrzD7AJAVtb/hWYCQEIQAACNgJJRTKp32azaFsZa2qtgTgomu2Y+TYhYGuLMUEXBCAAAQjkIJBUJJP6cyyZOKWMNbXWQBwkpjP/AJsQsLXlX4GZEIAABCBgI5BUJJP6bTaLtpWxptYaiIOi2Y6ZbxMCtrYYE3RBAAIQgEAOAklFMqk/x5KJU8pYU2sNxEFiOvMPsAkBW1v+FZgJAQhAAAI2AklFMqnfZrNoWxlraq2BOCia7Zj5NiFga4sxQRcEIAABCCQQWLdundx5551insNHtEg+/PDD8sorr4Rdjedof1OHw4My1tRaA3HgcCPYhICtzaELmIYABCDQEQTOOOMMmT59ujzzzDONeE2R/POf/yzHH3+8vOtd75K1a9c2cdAqok1GEw7KWFNrDcRBQjKLdNuEgK2tyBrMhQAEIAABkV/+8peywQYbyIYbbiif+tSnZMSIETJ8+HAJgkCuu+66pqsKhpdWEc3Cvow1tdZAHGTJbMaxNiFga8toluEQgAAEIGAhcPDBB0tXV1dDEBhRYP623XZbWb58eUM8DHTbYc2aNfLrX//aYlG3Satwx3mltQbiII5ywT6bELC1FVyG6RCAAAQgICLf//73+4mDz3/+842rBvfcc0/j9sITTzzRYBUWUfN+hAkTJshPfvIT5wzDNV0upLUG4sBhlmxCwNbm0AVMQwACEOgYAuYKwE477dR35cDcZli6dGkjfvOeg913371x6+Gkk05qvP7oRz/aEBOTJk3q954EF9C0Cnecb1prIA7iKBfsswkBW1vBZZgOAQhAAAJ/J3DhhRf2XT2YPXt203sNLr744r6+8LaDef7Wt77VNM4VTK3CHeef1hqIgzjKBftsQsDWVnAZpkMAAhCAwN8JmE8oDBkypHH1wNxKiL7P4OWXX5ZNN92078qCEQZbbrmlLFu2rBR+WoU7zlmtNRAHcZQL9tmEgK2t4DJMhwAEIACBCIEPfvCDjdsGb7/9dqS19+XHP/7xpqsHZ599dpOA6DdBsUGrcMe5pLUG4iCOcsE+mxCwtRVchukQgAAEIBAh8NBDD8kll1xiLfqPP/64DBo0qHH1wDz/5je/icx0+1KrcMd5qbUG4iCOcsE+mxCwtRVchukQgAAEOpqAuS1w953fkbNOOlR6po6W7j23kHHmb69tpefAPeTTnzpBHnjgAVm5cmWDk/lSJHNLYebMmaW8ETFMjlbhDu3ZnrXWQBzY6Cq12YSArU1pOcxAAAIQ6CgCL774onz69Hmy9+6byhkfDOSeKwJ5/u5A5Mn1f3+4K5DbLwnkxPdtIWP3HCmXXnJx4w2I5vsQ7rjjDuvVBVcQtQp3nH9aayAO4igX7LMJAVtbwWWYDgEIQKDjCFx1+YWyz5hh8u/zA1n92HoxEBUGra9fXxjIgtO2kQnjdxNzLjYffSzzoVW443zWWgNxEEe5YJ9NCNjaCi7DdAhAAAIdQ8B82+G8I2fIJ+YNlWUPpxMFrSLh6ZsHy9g9Rsq9997LlYMBdg7iYAAwGs02IWBr01gLGxCAAATanYD5l/6Rs6bL5Z8bLOueyCcMQqHw0gOBTOgeJc8883Rp2LT+VR/nsNYaiIM4ygX7bELA1lZwGaZDAAIQ6AgCZ5x2gsw/ZfPCwiAUCE/fvJHsu8/ujd9eKAOgVuGO81VrDcRBHOWCfTYhYGsruAzTIQABCLQ9gUWLFsmM/beXtY8Xu2IQCoPwecFp28pll15cyu0FrcIdl2ytNRAHcZQL9tmEgK2t4DJMhwAEIND2BKZPmyRPfWdQ0ycRwgJf5PmNhwLpHjNSVqxY4ZyhVuGOc1RrDcRBHOWCfTYhYGsruAzTIQABCLQ1gSVLlsjM6aMy3U4w7ykYNKj3Z5ujv6Ngu/Jw0vu3bnwPQvSrll0A1Srccb5prYE4iKNcsM8mBGxtBZdhOgQgAIG2JnDhhQvkmvnDM4mDH38jkHe/M5C1Kd64eMelgZxz5sed31rQKtxxydZaA3EQR7lgn00I2NoKLsN0CEAAAm1N4MhZPfK727K91+Drnw/kUx8OUgmKF+4N5L09Y51/W6JW4Y5LttYaiIM4ygX7bELA1lZwGaZDAAIQaGsC75y4h7z1qF0c/OWHgfRMDmSHbQO54cJAurqCxpsWTz02aHxBUpqPPK5ZFMi+e2+POIjsIsRBBIb2S5sQsLVpr4s9CEAAAu1EYNzYHQe8PfDRWYFcd2Egr/44kH84Yr04ePfkQA6bGsg2WwSy7ZaBnPK+QN58yC4wzBsaR43cRHp6epz+TZkypTYCBHHg8P8gmxCwtTl0AdMQgAAEak9g8oTRsnyAKwcjtg7EfOLAFPjf3BrIoL9fOdhuq0D+7QuBrHg0kLceCeS6BYF84mj7bYbeKwdbOy/cZSSC2wplUC64hk0I2NoKLsN0CEAAAm1NYM7hB8izt9v/1T90SCBr/v7bCqt+2vsJBdsnElb+pPcqgq3vz/cFcshBuyEOIruIKwcRGNovbULA1qa9LvYgAAEItBOBC847TW68qMv65sLdduy9pWCuHJhfZDQfX7QJAPM7DJsMtffde0UgZ37yUFm3bm3tsXHloAYptAkBW1sNQsFFCEAAApURWLx4scw7xP61yed+LJCrzwvE/OKieV9B+IbEffcM5Ob/LxBzxcDckjBjxuxs/2jjpz48SH5wx03OP8pYBkDEQRmUC65hEwK2toLLMB0CEIBA2xOYNH6E/Ome/rcWzBWBD84MZIthgVx48npxYN5/MPOAQIZtEsgWmwXy/kMD+fX3+8837zcYt8em8sYbb7QFQ8RBDdJoEwK2thqEgosQgAAEKiXw3Zu+If94dPKvMQ50W2Ggr1i+/sJAzjn9mLa4amAShDiodJumW9wmBGxt6awxCgIQgEBnE5j+rp3lkWv6/+s/WviziANzu2HCXpvJn/70p7YBizioQSptQsDWVoNQcBECEIBA5QSeW/prGbfHMPm/PxhYIGQRB588ZhO58rKL2uaqgUkQ4qDybZrsgE0I2NqSLTECAhCAAAQMgYU/ukMm7T0kViBEryQM9PrKzw+ReUf2tMUnFKI7A3EQpeHpa5sQsLV56j5uQQACEPCSwDmfOrnxJsKHvzXwFYSBRIFpn3/qcJlzxAx5661lXsZXxCnEQRF6Jc21CQFbW0nusAwEIACBtiBgCuDSZ38tB+2/s5xw1GDrpxhs4uDpmwfJjP1HyGmnfFxWr17dFixag0ActBLx8NgmBGxtHrqOSxCAAAS8JRAtgN+96Zuyb/cImXvwZnL9gkB+f2cgqyPfmLj0jkCuvXBLOXT6KJk2dZI89thj3sal4ViUTRF7fENiEXoJc21CwNaWYIZuCEAAAhCIELAVQPNFSV/64lkya+a7ZOL4nWXk9lvIxH12l9mHz5D5878sS5YsiVho35c2NnmiRRzkoZZyjk0I2NpSmmMYBCAAAQikfEe+VpGsG3CtuBEHDjNvEwK2NocuYBoCEIBA2xFIUwDTjGk7MCmFU5q4EQdpKOUcYxMCtrac5pkGAQhAoCMJpCn8aca0IzytuBEHDneHTQjY2hy6gGkIQAACbUcgTQFMM6btwHDloB4ptQkBW1s9osFLCEAAAn4QSFP404zxIxpdL7Ti5sqBbl6arNmEgK2taRIHEIAABCAQSyBNAUwzJnaRmnZqxY04cLgBbELA1ubQBUxDAAIQaDsCaQpgmjFtB4bbCvVIqU0I2NrqEQ1eQgACEPCDQJrCn2aMH9HoeqEVN1cOdPPSZM0mBGxtTZM4gAAEIACBWAJpCmCaMbGL1LRTK27EgcMNYBMCtjaHLmAaAhCAQNsRSFMA04xpOzDcVqhHSm1CwNZWj2jwEgIQgIAfBNIU/jRj/IhG1wutuLlyoJuXJms2IWBra5rEAQQgAAEIxBJIUwDTjIldpKadWnEjDhxuAJsQsLU5dAHTEIAABNqOQJoCmGZM24HhtkI9UmoTAra2ekSDlxCAAAT8IJCm8KcZ40c0ul5oxc2VA928NFmzCQFbW9MkDiAAAQhAIJZAmgKYZkzsIjXt1IobceBwA9iEgK3NoQuYhgAEINB2BNIUwDRj2g4MtxXqkVKbELC11SMavIQABCDgB4E0hT/NGD+i0fVCK26uHOjmpcmaTQjY2pomcQABCEAAArEE0hTANGNiF6lpp1bciAOHG8AmBGxtDl3ANAQgAIG2I5CmAKYZ03ZguK1Qj5TahICtrR7R4CUEIAABPwikKfxpxvgRja4XWnFz5UA3L03WbELA1tY0iQMIiEgQBAP+rVu3DkYQ8JrAoEGDBty/a9euLex7mgKYZkxhRzw0oBU34sBhcm1CwNbm0AVM15SAEQeIgJomD7fFiAMNETAQyjQFMM2YgezXuV0rbsSBw11gEwK2NocuYLqmBBAHNU0cbjcIIA6q2wiIg+rYp17ZJgRsbakNMrBWBF5//XWZN2+eDB8+XI4++mh54403UvuPOEiNioGOCJj9e8wxx/TtX3Oc9oE4SEtKfxziQJ+pukWbEJgyZYr09PTw1wEMRo0aJSbfM2bMkDFjxshOO+2UOu9x7znQ2j/Gt7jHfvvtl9pfLZ+w48+5wef9a/Zu0m0LrSIZ9/+Ij31acXNbwWF2beLA4XKY9ozAzjvvLGvWrGl49dJLL8muu+6a2sMyrhx0d3fHvq8hqT91MAysJYFddtlFVq1a1fDd7N/ddtstsSCHgbq+chCuE/esVSTj1vCxTytuxIHD7CIOHMKtgekhQ4Y0vWN7o402Su014iA1KgY6IrDxxhv3279J/1oPXUEchCTKf0YclM8884qIg8zI2mrCjjvuKKtXr84VE+IgFzYmKRIwt8FWrlyZyyLiIBc2lUmIAxWMbo0gDtzy9d36SSedJE899VTjBHv11VfLAQcckNplxEFqVAx0RODkk0+W//mf/2ns32984xsyderU2NtQUTcQB1Ea5b5GHJTLO9dqiINc2Npm0iuvvCJHHXWUDBs2TCZNmiS//OUvm2IzAmCgh+kb6E/r+w+S3lOQ1D+Q77S3BwGzf82nbML9+4tf/KIpsDgBYPoG2r9pb000LZbjQKtI5li60ilacQ98dqo0vPZYHHHQHnl0FcWJJ57oynQqu0nFP6k/1SIMalsC5sqYllB1AUmrSLrwzaVNrbgRBw6zhDhwCLcNTJ977rmVRpFU/JP6K3WexSsn8IUvfAFxUHkW+juAOOjPxLsWxIF3KcGhCIGk4p/UHzHFSwh4R0CrSHoXWIJDWnFz5SABdJFuxEEResx1TSCp+Cf1u/YP+xAoQkCrSBbxoYq5WnEjDhxmD3HgEC6mCxNIKv5J/YUdwAAEHBLQKpIOXXRiWituxIGT9PQaRRw4hIvpwgSSin9Sf2EHMAABhwS0iqRDF52Y1oobceAkPb1GEQcO4WK6MIGk4p/UX9gBDEDAIQGtIunQRSemteJGHDhJT69RxIFDuJguTCCp+Cf1F3YAAxBwSECrSDp00YlprbgRB07S02sUceAQLqYLE0gq/kn9hR3AAAQcEtAqkg5ddGJaK27EgZP09BpFHDiEi+nCBFqL//PPP99kM6m/aTAHEPCMgFaR9CysRHe04kYcJKLOPwBxkJ8dM90TaC3+3/3ud2XOnDny3HPPNRYP+3/1q1/Ju9/9bvnRj37k3ilWgIASAa0iqeROaWa04kYcOEwZ4sAhXEwXJhAW/9DQmjVrxPyS5NChQ2X+/PkyZswY+cxnPiODBw8Ws5d9/qrcMAaeIRAS0CqSob26PGvFjThwmHHEgUO4mM5EwPzYTevP77aKgxUrVjREQfiDOV1dXX0/nnPVVVdlWo/BEKiagFaRrDqOrOtrxY04yEo+w3jEQQZYDHVO4LjjjpO77767b51QHJif5Z09e7YsX75cXnjhBdloo436RIERCptttpm89tprffN4AYE6ENAqknWINeqjVtyIgyhV5deIA2WgmCtE4MYbb2wU/SOPPFJ+//vfN24bnH766bLBBhvIOeec02f72GOPbRIHp5xySl8fLyBQFwJaRbIu8YZ+asWNOAiJOnhGHDiAisncBMxthe23375R+DfeeOOGKDBXBgYNGiS//e1v++w++OCDEt5SMM/PPPNMXx8vIFAXAlpFsi7xhn5qxY04CIk6eEYcOICKyUIEzM/shu8pCJ8PO+ywfjbNCcb0z5gxgzci9qNDQx0IaBXJOsQa9VErbsRBlKrya8SBMlDMFSbwhz/8QTbccMMmgXDnnXf2s/v1r3+9MeaWW27p10cDBOpAQKtI1iHWqI9acSMOolSVXyMOlIFiToXAUUcd1ScORo8eLW+//XY/u2+88UbjPQmrVq3q10cDBOpAQKtI1iHWqI9acSMOolSVXyMOlIFiToXA/fff3ycOvvrVr/bZXLx4sVxw/rky67BpMnGf3WSP3UY0nmcddpBccMF5Yvp5QKAuBLSKZF3iDf3UihtxEBJ18Iw4cAAVk4UJmC8zMl9wZL7s6K9//avccsvNMmHczjL30JFywz9tJL+/M5DVjwUiT/Y+m+Mb/mmozD10R5kwbrRwq6FwCjBQAgGtIlmCq6pLaMWNOFBNS7MxxEEzD478IXDZZZfJ3LlzZdoB4+SEeVvJC/f2igEjCOL+zLgTjtlOph0wQZ57bqk/AeEJBFoIaBXJFrPeH2rFjThwmGrEgUO4mC5EwHwZ0m47byWPXDMoVgwMJBQe+faG0j1mB1m4cGEhP5gMAVcEtIqkK/9c2dWKG3HgKkMije+jd2ge0xDIRcAU9Ind28of7oq/SjCQMAjbzfxJ40YiEHJlgUmuCWgVSdd+atvXihtxoJ2ZiD2uHERg8NILAuYXF7vHjCwsDNYLhC4Zt9coWbqUWwxeJBgn+ghoFck+gzV5oRU34sBhwhEHDuFiOheBaVMny6Pf3jDXrYRQELQ+P3rtUJl24H58WVKujDDJFQGtIunKP1d2teJGHLjKELcVHJLFdB4C5lMGJxy7s6owCIXCCe8fw6cY8iSFOc4IaBVJZw46MqwVN+LAUYKMWa4cOISL6cwEJk4YKy/c25VaHCx/NJDz/zGQd4wIZOMhgUzdJ5Bnbra/T+GF+zaUiRO6uXqQOStMcEVAq0i68s+VXa24EQeuMoQ4cEgW01kJmC8wmnv43qmFgbkicOK8QM7+cCDP3x2IEQpXfi6Q8bsHsm6AjzvOmzVRFi/+WVbXGA8BJwS0iqQT5xwa1YobceAwSVw5cAgX05kInH/++XLjv+yRSRzss3sgV59nv1IQ3k6IPt94ySQx6/CAgA8EtIqkD7Fk8UErbsRBFuoZxyIOMgJjuDMCs2fPlqV3bWUVB3/5YSAzJgWyw7aB3HhR0Phq5XVPBLLl5oEs/k56cbD0vt3FrGO+gZEHBKomoFUkq44j6/pacSMOspLPMB5xkAEWQ50SmDRpoqz8if39BscdEcj1Fwby2o8D+cjh68XBhhsEcsOFgey+UyCbbxrIPxzROyZ6tSD6euWi4WLWQRw4TSXGUxLQKpIpl/NmmFbciAOHKUUcOISL6UwEurvHDvhege23CuTNh3uvEPzm1kC6ugIxVw4GDQrkw4cFja9WNu85+NpZgXz8yJgrCYuHSnf33oiDTJlhsCsCWkXSlX+u7GrFjThwlSHekOiQLKazEpg8ebKsWLSZ9bbCkMGBvP14b9Ff9dP14sB8QuGlB9aLgTcfCmSbLXqFQ/SKQfh6xZOjZfLkSYiDrMlhvBMCWkXSiXMOjWrFjThwmCSuHDiEi+lMBObMmSPP3ru7VRzsukMgry3sFQHmkwnhlYOdtg/k7UXrxYG57RAnDp794RQx63BbIVNqGOyIgFaRdOSeM7NacSMOnKWI7zlwiBbTGQksWLBArvnawVZx8Pnjez+V8MZDgZx8zPr3HBx2QCDf/lIgyx4O5PWFgSw4KZBTj10vFsIrBuHzNZceJWYdHhDwgYBWkfQhliw+aMWNOMhCPeNYrhxkBMZwZwSWLFkih77nnVZxYIr/Bw4NZPiwQC46Zb04+J/v9H7x0SZDA9l040COnx2IubUQioHW55mHHCBLfvUrZzFgGAJZCGgVySxr+jBWK27EgcNsIg4cwsV0ZgLTph0oT9+224DFPSz24W2F8DjN89N3TJRp06ZxSyFzVpjgioBWkXTlnyu7WnEjDlxliDckOiSL6TwEFi1aJNOndjc+iRBX8LOKg3VPdMmMA/cVY58HBHwhoFUkfYknrR9acSMO0hLPMY4rBzmgMcUpgdNPP13mn9Ude/UgqziYf/YUMXZ5QMAnAlpF0qeY0viiFTfiIA3tnGMQBznBMc0ZgTVr1sic2UfIFV/cKVYgxF1ZiPZdcf4eMmfObFm9erUznzEMgTwEtIpknrWrnKMVN+LAYRYRBw7hYjo3geXLl8vco2fJ1EnD5a1HBn6DYVQEtL428z7x/nfI3KPniLHHAwK+EdAqkr7FleSPVtyIgyTSBfoRBwXgMdU5gZEjR8r4vbaR6xZsIGsi32fQKgSix2bcdRcOlvFjt5crr7zCuY8sAIG8BLSKZN71q5qnFTfiwGEGEQcO4WK6MIHu7m558cUX5ZyzPi5jd99czvzQhnLvFb0/0RwVBOaLkUz7mR/aSMbuvoWcc9YnG/MKO4ABCDgkoFUkHbroxLRW3IgDJ+npNYo4cAgX04UJGHEQfpvhsmXL5O67bpMzT5otPVNHS/eeW8qO22/ceDbHZ558tNx91x1ixvGAQB0IaBXJOsQa9VErbsRBlKrya8SBMlDMqRKIigOb4aR+2xzaIOALAa0i6Us8af3QihtxkJZ4jnGIgxzQmFIagaTin9RfmqMsBIEcBLSKZI6lK52iFTfiwGEaEQcO4WK6MIGk4p/UX9gBDEDAIQGtIunQRSemteJGHDhJT69RxIFDuJguTCCp+Cf1F3YAAxBwSECrSDp00YlprbgRB07S02sUceAQLqYLE0gq/kn9hR3AAAQcEtAqkg5ddGJaK27EgZP09BpFHDiEi+nCBJKKf1J/YQcwAAGHBLSKpEMXnZjWihtx4CQ9vUYRBw7hYrowgaTin9Rf2AEMQMAhAa0i6dBFJ6a14kYcOElPr1HEgUO4mC5MIKn4J/UXdgADEHBIQKtIOnTRiWmtuBEHTtLTaxRx4BAupgsTSCr+Sf2FHcAABBwS0CqSDl10YlorbsSBk/T0GkUcOISL6cIEkop/Un9hBzAAAYcEtIqkQxedmNaKG3HgJD29RhEHDuFiujCBpOKf1F/YAQxAwCEBrSLp0EUnprXiRhw4SU+vUcSBQ7iYLkwgqfgn9Rd2AAMQcEhAq0g6dNGJaa24EQdO0tNrFHHgEG4bmZ4yZYr09PSU/mfWjXsgDuLo0Oc7Aa0i6Xucrf5pxY04aCWreIw4UITZxqZ83SeIgzbedB0QmlaRrBsqrbgRBw4z7+tJ32HImM5BwNd9gjjIkUymeENAq0h6E1BKR7TiRhykBJ5nmK8n/TyxMMcdAV/3CeLAXc6x7J6AVpF076nuClpxc/l7VgAAIABJREFUIw5089JkzdeTfpOTHFROwNd9gjiofGvgQAECWkWygAuVTNWKG3HgMH2+nvQdhozpHAR83SeIgxzJZIo3BLSKpDcBpXREK27EQUrgeYb5etLPEwtz3BHwdZ8gDtzlHMvuCWgVSfee6q6gFTfiQDcvTdZ8Pek3OclB5QR83SeIg8q3Bg4UIKBVJAu4UMlUrbgRBw7T5+tJ32HImM5BwNd9gjjIkUymeENAq0h6E1BKR7TiRhykBJ5nmK8n/TyxMMcdAV/3CeLAXc6x7J6AVpF076nuClpxIw5089JkzdeTfpOTHFROwNd9gjiofGvgQAECWkWygAuVTNWKG3HgMH2+nvQdhozpHAR83SeIgxzJZIo3BLSKpDcBpXREK27EQUrgeYb5etLPEwtz3BHwdZ8gDtzlHMvuCWgVSfee6q6gFTfiQDcvTdZ8Pek3OclB5QR83SeIg8q3Bg4UIKBVJAu4UMlUrbgRBw7T5+tJ32HImM5BwNd9gjjIkUymeENAq0h6E1BKR7TiRhykBJ5nmK8n/TyxMMcdAV/3CeLAXc6x7J6AVpF076nuClpxIw5089JkzdeTfpOTHFROwNd9gjiofGvgQAECWkWygAuVTNWKG3HgMH2+nvQdhozpHAR83SeIgxzJZIo3BLSKpDcBpXREK27EQUrgeYb5etLPEwtz3BHwdZ8gDtzlHMvuCWgVSfee6q6gFTfiQDcvTdZ8Pek3OclB5QR83SeIg8q3Bg4UIKBVJAu4UMlUrbgRBw7T5+tJ32HImM5BwNd9gjjIkUymeENAq0h6E1BKR7TiRhykBJ5nmK8n/TyxMMcdAV/3CeLAXc6x7J6AVpF076nuClpxIw5089JkzdeTfpOTHFROwNd9gjiofGvgQAECWkWygAuVTNWKG3HgMH2+nvQdhozpHAR83Sdx4qCrq0vWrVuXI1qmQKAcAlpFshxv9VbRihtxoJeTfpZ8Pen3c5SGSgn4uk8QB5VuCxYvSECrSBZ0o/TpWnEjDhymzteTvsOQMZ2DgK/7BHGQI5lM8YaAVpH0JqCUjmjFjThICTzPMF9P+nliYY47Ar7uk1ZxYG4lBEFg/eMWg7v9geV8BLSKZL7Vq5ulFTfiwGEOfT3pOwwZ0zkIVLFPooV+oMLeKg6iofGegygNXvtIQKtI+hhbnE9acSMO4igX7KvipF/QZaZXQMDXfYI4qGAzsKQaAa0iqeZQSYa04kYcOEyYryd9hyFjOgcBX/cJ4iBHMpniDQGtIulNQCkd0YobcZASeJ5hvp7088TCHHcEfNon0dsFceLAHQ0sQ0CHgFaR1PGmPCtacSMOHObMp5O+wzAxXZCAT/vkxBNP7IsGcdCHghc1JKBVJOsWulbciAOHmffppO8wTEwXJODTPjn33HP7okEc9KHgRQ0JaBXJuoWuFTfiwGHmfTrpOwwT0wUJ+LpPEAcFE8v0SgloFclKg8ixuFbciIMc8NNO8fWkn9Z/xpVDwNd9gjgoJ/+s4oaAVpF04507q1pxIw7c5Uh8Pek7DBnTOQj4uk8QBzmSyRRvCGgVSW8CSumIVtyIg5TA8wzz9aSfJxbmuCPg6z5BHLjLOZbdE9Aqku491V1BK27EgW5emqz5etJvcpKDygn4uk8QB5VvDRwoQECrSBZwoZKpWnEjDhymz9eTvsOQMZ2DgK/7BHGQI5lM8YaAVpH0JqCUjmjFjThICTzPMF9P+nliYY47Ar7uE8SBu5xj2T0BrSLp3lPdFbTiRhzo5qXJmq8n/SYnOaicgC/75PHHH5dVq1b18YiKg7feeksWL17c18cLCPhOQKtI+h5nq39acSMOWskqHvty0lcMCVMOCPiyT370ox/JnnvuKffff38jylAcfO9735N3vOMd8tRTTzmIHpMQcENAq0i68c6dVa24EQfucsRHGR2ybSfTvogDw9T4EgSBzJs3T3beeWc59NBDG8cHHXSQDPTTzu2UC2JpHwJaRbJuRLTiRhw4zLxPJ32HYWK6IAGf9smVV17ZEANGIET/brrppoJRMh0C5RLQKpLlel18Na24EQfFczGgBZ9O+gM6SUflBHzaJ6+//rpsvvnmTcJgxIgRTe9FqBwYDkAgBQGtIpliKa+GaMWNOHCYVp9O+g7DxHRBAr7tk5NPPrlJHJx//vkFI2Q6BMonoFUky/e82IpacSMOiuUhdrZvJ/1YZ+msjIBv++TnP/+5dHV1NQTChhtuKM8//3xlbFgYAnkJaBXJvOtXNU8rbsSBwwz6dtJ3GCqmCxDwcZ/MmDGjIQ7MGxN5I2KB5DK1MgJaRbKyAHIurBU34iBnAtJM8/Gkn8ZvxpRLwMd9cvPNNzfEwQMPPFAuDFaDgBIBrSKp5E5pZrTiRhw4TJmPJ32H4WI6JwEf98nq1avlPe95j6xduzZnVEyDQLUEtIpktVFkX10rbsRBdvapZ/h40k/tPANLI+DDPlm2bJncfffdcuapH5aeA/eS7jHbSfee2zSezfGZpx3X6DfjeECgDgS0imQdYo36qBU34iBKVfm1Dyd95ZAw54BAlfvkxRdflHPOPlXG7rG1nPmRzeXeKwJ5/u5A5Mn1f+bYtJ/5kS1k7B7byjlnnyFmHg8I+ExAq0j6HKPNN624EQc2ukptVZ70lULATAkEqton5guPxo8dKdddtKmsWbReDESFQetrM+66izaX8XuPEjOfBwR8JaBVJH2NbyC/tOJGHAxEWKG9qpO+guuYKJFA2ftk+fLlMvfoI+UTH9hN3noknShoFQlm3ic+OFbmzj1ajD0eEPCNgFaR9C2uJH+04kYcJJEu0F/2Sb+Aq0ytkECZ+2TNmjUyZ85sueKCvZpuHbQW/7THV3x5ksyZM0fMGxh5QMAnAlpF0qeY0viiFTfiIA3tnGPKPOnndJFpHhAoc5+cfvrpMv/sd6kIg1BAzP/0e8TY5QEBnwhoFUmfYkrji1bciIM0tHOOKfOkn9NFpnlAoKx9smjRIpl+4ARZ90S+WwmhGGh9XvfkBjJj2jvF2OcBAV8IaBVJX+JJ64dW3IiDtMRzjCvrpJ/DNaZ4RKCsfTJt2jR5+vYJqlcNQqHw9A+mi7HPtyl6tLE63BWtIlk3jFpxIw4cZr6sk77DEDBdAoEy9smSJUvk0IP3yyQMurqaf7bZ/ITzBoOCAa88zDxkmiz51a9KIMYSEEgmoFUkk1fya4RW3IgDh3kt46Tv0H1Ml0SgjH2yYMECuebiwzOJg/CqQPh81ecCufJzA9+SuOayY8WswwMCPhDQKpI+xJLFB624EQdZqGccW8ZJP6NLDPeQQBn7xHyi4Nn7xuYWBz+9NpBj3hPIusiXI4WiIXx+9oGpjU8ucGvBw03WgS5pFcm6odOKG3HgMPNlnPQduo/pkgiUsU8mT54sKxYNt4qDv/wwkBmTAtlh20BuvKj3VkL0TYurfhrIO8cG8sd7Br5qYATCiid3k8mTJ/G+g5L2DcvEE9AqkvGr+NerFTfiwGFuyzjpO3Qf0yURKGOfdHePHfBf/ccdEcj1Fwby2o8D+cjh/cWBuZVwzkfihUHj6sHiTaW7e2/EQUn7hmXiCWgVyfhV/OvVihtx4DC3ZZz0HbqP6ZIIlLFPJk3aV1b+pMt65WD7rQJ58+He4v+bWwMxb0QMrxy8/XggO49MvmpgxMHKx4bJpEkTEQcl7RuWiSegVSTjV/GvVytuxIHD3JZx0nfoPqZLIlDGPpk9e7YsvWsLqzgYMjgQIwJMgTe3EKLi4J4rAjlkv/j3GjSuGjwZyNL7dhGzDu85KGnjsEwsAa0iGbuIh51acSMOHCa3jJO+Q/cxXRKBMvbJ+eefLzf+y2irONh1h0BeW9grDswvMEbFwcnHBGI+pRAKgLjnGy8eL2YdHhDwgYBWkfQhliw+aMWNOMhCPePYMk76GV1iuIcEytgnixcvlrmHj7EW+c8fH8jV5wXyxkOBGDFgvs8gvK2wz+6B/OzGdOJg3hHjZfHin3lIGJc6kYBWkawbO624EQcOM1/GSd+h+5guiUBZ+2TihDHywr39C/2yhwP5wKGBDB8WyEWnNIuDzTYN5NUH+89pvYLwwr1dMnECb0YsacuwTAoCWkUyxVJeDdGKG3HgMK1lnfQdhoDpEgiUtU9uueUWOeGYkdarB9FiH72tEG2Pe33CsaPF2OcBAV8IaBVJX+JJ64dW3IiDtMRzjCvrpJ/DNaZ4RKDMfTLtgIny6Lftn1oIi39WcfDotzeUaVMn80ZEj/YUrohoFcm6sdSKG3HgMPNlnvQdhoFpxwTK3CfPPfecdI/ZVv5w18C3CrKIA2Nn3JgRsnTpUseUMA+BbAS0imS2VasfrRU34sBhLss86TsMA9OOCZS9TxYu/LFM3HuLWIEQXkWIezbCYFL31mLs8YCAbwS0iqRvcSX5oxU34iCJdIH+sk/6BVxlaoUEqtgnC3/8I+nec0t55JqBryDECQMzr3vPbWThwh9VSI6lITAwAa0iOfAKfvZoxY04cJjfKk76DsPBtCMCVe0Tc4th2rv2lBOO3sT6KQabODCfdjhh7jCZ9q6x8txz3EpwtCUwq0BAq0gquFKqCa24EQcO01bVSd9hSJh2QKDqfXLLzdfLhO6RMveQ4XLDhYH8/s5AVj/We0XBPJtj0z73kC1lQveOcsvN/+GAAiYhoEtAq0jqeuXemlbciAOHuar6pO8wNEwrEvBln5gvSrrgvDNk1qGTZeL4nWSH7TdrPM869J1ywRc/JaafBwTqQkCrSNYl3tBPrbgRByFRB8++nPQdhIZJRQK+7pPu7m4+nqiYZ0yVS0CrSJbrdfHVtOJGHBTPxYAWfD3pD+gwHZUQ8HWfIA4q2Q4sqkRAq0gquVOaGa24EQcOU+brSd9hyJjOQcDXfYI4yJFMpnhDQKtIehNQSke04kYcpASeZ5ivJ/08sTDHHQFf9wniwF3OseyegFaRdO+p7gpacSMOdPPSZM3Xk36TkxxUTsDXfYI4qHxr4EABAlpFsoALlUzVihtx4DB9vp70HYaM6RwEfN0niIMcyWSKNwS0iqQ3AaV0RCtuxEFK4HmG+XrSzxMLc9wR8HWfIA7c5RzL7gloFUn3nuquoBU34kA3L03WfD3pNznJQeUEfN0niIPKtwYOFCCgVSQLuFDJVK24EQcO0+frSd9hyJjOQcDXfYI4yJFMpnhDQKtIehNQSke04kYcpASeZ5ivJ/08sTDHHQFf9wniwF3OseyegFaRdO+p7gpacSMOdPPSZM3Xk36TkxxUTsDXfYI4qHxr4EABAlpFsoALlUzVihtx4DB9vp70HYaM6RwEfN0niIMcyWSKNwS0iqQ3AaV0RCtuxEFK4HmG+XrSzxMLc9wR8HWfIA7c5RzL7gloFUn3nuquoBU34kA3L03WfD3pNznJQeUEfN0niIPKtwYOFCCgVSQLuFDJVK24EQcO0+frSd9hyJjOQcDXfYI4yJFMpnhDQKtIehNQSke04kYcpASeZ5ivJ/08sTDHHQFf9wniwF3OseyegFaRdO+p7gpacSMOdPPSZM3Xk36TkxxUTsDXfYI4qHxr4EABAlpFsoALlUzVihtx4DB9vp70HYaM6RwEfN0niIMcyWSKNwS0iqQ3AaV0RCtuxEFK4HmG+XrSzxMLc9wR8HWfIA7c5RzL7gloFUn3nuquoBU34kA3L03WfD3pNznJQeUEfN0niIPKtwYOFCCgVSQLuFDJVK24EQcO0+frSd9hyJjOQcDXfYI4yJFMpnhDQKtIehNQSke04kYcpASeZ5ivJ/08sTDHHQFf9wniwF3OseyegFaRdO+p7gpacSMOdPPSZM3Xk36TkxxUTsDXfYI4qHxr4EABAlpFsoALlUzVihtx4DB9vp70HYaM6RwEfN0niIMcyWSKNwS0iqQ3AaV0RCtuxEFK4HmG+XrSzxMLc9wR8HWfIA7c5RzL7gloFUn3nuquoBU34kA3L03WfD3pNznJQeUEfN0niIPKtwYOFCCgVSQLuFDJVK24EQcO0+frSd9hyJjOQcDXfYI4yJFMpnhDQKtIehNQSke04kYcpASeZ5ivJ/08sTDHHQFf9wniwF3OseyegFaRdO+p7gpacSMOdPPSZM3Xk36TkxxUTsDXfYI4qHxr4EABAlpFsoALlUzVihtx4DB9vp70HYaM6RwEfN0niIMcyWSKNwS0iqQ3AaV0RCtuxEFK4HmG+XrSzxMLc9wR8HWfIA7c5RzL7gloFUn3nuquoBU34kA3L03WfD3pNznJQeUEfN0niIPKtwYOFCCgVSQLuFDJVK24EQcO0+frSd9hyJjOQcDXfYI4yJFMpnhDQKtIehNQSke04kYcpASeZ5ivJ/08sTDHHQFf9wniwF3OseyegFaRdO+p7gpacSMOdPPSZM3Xk36TkxxUTsDXfYI4qHxr4EABAlpFsoALlUzVihtx4DB9vp70HYaM6QwEgqD3f79wn4THGUw4GdrV1SXr1q2TUByEx04WwygEHBHQKpKO3HNmVituxIGzFImEJ32HS2C6xgRCMRDuk/C46pBCMYA4qDoTrF+EgFaRLOJDFXO14kYcOMxeeNJ3uASma0wgFAPhPgmPqw4JcVB1Blhfg4BWkdTwpUwbWnEjDhxmLTzpO1wC0zUmEIqBcJ+Ex1WHhDioOgOsr0FAq0hq+FKmDa24EQcOsxae9B0ugekaEwjFQLhPwuOqQ0IcVJ0B1tcgoFUkNXwp04ZW3IgDh1kLT/oOl8B0jQmEYiDcJ+Fx1SEhDqrOAOtrENAqkhq+lGlDK27EgcOshSd9h0tgusYEjBiw/VUdkhEHNr/MJxh4QKAuBLSKZF3iDf3UihtxEBJ18Iw4cAC1DU1G94kvVw8M5vDTCuZ1eDWhDfETUpsS0CqSdcOjFTfiwGHmoyd9h8tguuYEovsEcVDzZOK+NwS0iqQ3AaV0RCtuxEFK4HmGRU/6eeYzpzMIRPcJ4qAzck6U7gloFUn3nuquoBU34kA3L03Woif9pg4OIBAh4Os+id5WiLjLSwjUgoBWkaxFsBEnteJGHESgar/09aSvHSf2ihHwdZ8gDorlldnVEtAqktVGkX11rbgRB9nZp57h60k/dQAMLIWAr/sEcVBK+lnEEQGtIunIPWdmteJGHDhLEb+t4BBtW5lGHLRVOgnGEwJaRdKTcFK7oRU34iA18uwDfT3pZ4+EGS4J+LpPuHLgMuvYdk1Aq0i69lPbvlbciAPtzETs+XrSj7jISw8I+LpPEAcebA5cyE1Aq0jmdqCiiVpxIw4cJtDXk77DkDGdg4Cv+wRxkCOZTPGGgFaR9CaglI5oxY04SAk8zzBfT/p5YmGOOwK+7hPEgbucY9k9Aa0i6d5T3RW04kYc6OalyZqvJ/0mJzmonICv+wRxUPnWwIECBLSKZAEXKpmqFTfiwGH6fD3pOwwZ0zkI+LpPEAc5kskUbwhoFUlvAkrpiFbciIOUwPMM8/WknycW5rgj4Os+QRy4yzmW3RPQKpLuPdVdQStuxIFuXpqs+XrSb3KSg8oJ+LpPEAeVbw0cKEBAq0gWcKGSqVpxIw4cps/Xk77DkDGdg4Cv+wRxkCOZTPGGgFaR9CaglI5oxY04SAk8zzBfT/p5YmGOOwK+7hPEgbucY9k9Aa0i6d5T3RW04kYc6OalyZqvJ/0mJzmonICv+wRxUPnWwIECBLSKZAEXKpmqFTfiwGH6fD3pOwwZ0zkI+LpPEAc5kskUbwhoFUlvAkrpiFbciIOUwPMM8/WknycW5rgj4Os+QRy4yzmW3RPQKpLuPdVdQStuxIFuXpqs+XrSb3KSg8oJTJkyRXp6ekr/M+vGPRAHcXTo852AVpH0Pc5W/7TiRhy0klU8RhwowsSUOoGk4p/Ur+4QBiGgSECrSCq6VIoprbgRBw7ThThwCBfThQm0Fv/ly5c32UzqbxrMAQQ8I6BVJD0LK9EdrbgRB4mo8w9AHORnx0z3BFqL/zXXXCMXXHCBhCIh7H/99dfl7LPPlttuu829U6wAASUCWkVSyZ3SzGjFjThwmDLEgUO4mC5MICz+oaE333xThg8fLqNHj5bbb79dzP694YYbZOTIkbLDDjvI6tWrw6E8Q8B7AlpF0vtAWxzUihtx0AJW8xBxoEkTW9oEWsWBsX/66adLEASNv8GDB/e9nj9/vvby2IOAUwJaRdKpkw6Ma8WNOHCQnNAk4iAkwXPVBNatW9e4NfDss8/2uRKKg1deeUU+9alPyd/+9jf51a9+JYMGDeoTBUYoGJHwwgsv9M3jBQTqQECrSNYh1qiPWnEjDqJUlV8jDpSBYq4QgX/913+VIUOGyJe+9KXG+wrM/vzmN78p22yzjRx//PF9tg8++OAmcfD+97+/r48XEKgLAa0iWZd4Qz+14kYchEQdPCMOHEDFZG4Cr732mgwbNqxR+M37CjbeeOM+EbBo0aI+u9/73vekq6urr+/BBx/s6+MFBOpCQKtI1iXe0E+tuBEHIVEHz4gDB1AxWYjAiSee2Ff0w/cWvPOd72yyuWbNGhk1alRjnDnRmFsSPCBQNwJaRbJT40YcOMw84sAhXEznIvDUU081XRUwAuHaa6/tZ2vBggUNcfD1r3+9Xx8NEKgDAcRBsSwhDorxi52NOIjFQ2dFBA488MC+qwdbb721vPXWW/08efHFFxvvRTDfccADAnUkgDgoljXEQTF+sbMRB7F46KyIwHe+850+cfCZz3ymz4vFixc3vgRp1qxZMnHfbtll5x0bz+bYfDmS6ecBgboQQBwUyxTioBi/2NmIg1g8dFZEYNWqVTJixIjGRxbNRxtvueUWmbDPGJl7+F5yw1d3kt/fGcjqxwKRJ3ufzfEN/2dXmXv43jJhn7GN8RW5zrIQSE0AcZAalXUg4sCKRacRcaDDESv6BL74xS82fgVy2oFT5IT37y4v3DuoIQaMIIj7e+G+DeWE9+8l0w7cT5577jl9x7AIASUCiINiIBEHxfjFzkYcxOKhs0IC//mf/yk777SdPHLtprFiYCCh8Mi/byHdY3eRhQsXVhgFS0NgYAKIg4HZpOlBHKShlHMM4iAnOKY5JWAK+sTxO8kf7t4glzAIBcMf7t5QJu0zGoHgNFsYz0sAcZCXXO88xEExfrGzEQexeOisgIC5FdA9dufCwqBPINwzRMaN3VWWLl1aQTQsCYGBCSAOBmaTpgdxkIZSzjGIg5zgmOaMwLQD95dH/31YoSsGoTAInx+9bluZNu0AvizJWdYwnIcA4iAPtfVzEAfrWai/QhyoI8VgAQLmUwknvH+sqjAIBcIJH5zIpxgK5Iap+gQQB8WYIg6K8YudjTiIxUNnyQQm7jtOzKcNwoKu+fzC/ZvKxAnjuXpQck5ZbmACiIOB2aTpQRykoZRzDOIgJzimqRMwX2A094gJmYTBX34YyAcODWSrzQPZenggHzk8kP/9r4E/6jhv1hRZvPhnsb4/+eSTYn4dkgcEXBNAHBQjjDgoxi92NuIgFg+dJRI4//zz5caLx2USB4dPDeSaLwWy4ie9f984L5A50wNZN8B3Idx42QFi1ml9rFy5Uq6//nrZb7/9Gr/rwMcfWwlx7IIA4qAYVcRBMX6xsxEHsXjoLJHA7NmzZend22cSB5tuHMjyR9dfKTCvh20SyLon1rdFb00svX8vMeuEv+L4+9//Xj73uc81fqMh/AXI4447rq+/xPBZqgMJIA6KJR1xUIxf7GzEQSweOkskMGnSRFn5U/v3GpjbBzMmBbLDtoHceFHQ+N0FIwDePTmQb38pkJU/CWTVTwP59/m94wa6crDy8a3FrHPPPffInDlzGl/PHIoC8zx8+HAxP+jEAwJlEEAcFKOMOCjGL3Y24iAWD50lEujuHjvg7YDjjgjk+gsDee3Hve8rMIXciINffz+QzTfpFQumzVxJ+PWt9qsGjSsIP9tIdthhpJhfeoyKgvC1ae/p6eEvJ4MpU6Zw1SXD/zOIgwywLEMRBxYoWk2IAy2S2ClKYPLkybLisY2ttxW23yqQNx/uLfq/uTWQrq5ecXDU9EC+ekbvrYU3HwpkwUmBvP+9A4uDFU+MksmTJ8ny5cvl2muvFVPMQmFgnru6uuShhx4qGkrHzu/u7kYcZMg+4iADLMtQxIEFilYT4kCLJHaKEjCX+Z+95x1WcTBkcCBvP95b9M3tg1AcmPcXvL5wvRgwVxY233Tg9xw8e/+Exu2E8D0HxufHH39cPvaxj8nQoUMbQmHChAmyZs2aouF05HzEQba0Iw6y8WodjThoJaJ4jDhQhImpQgQWLFgg1/yfqVZxsOsOgbz2dxHw/N3rxYF5D0L0zYdvPBTIiK2b26JvSLzm4kPFrGN7vPzyy/K1r31NdtllF7n88sttQ2hLIIA4SADU0o04aAGS8RBxkBFYluGIgyy0GOuSwJIlS+TQ99i/5+Dzxwdy9XmBmOJ/8jHr35B4xgcCueKzgbzyo95bC185PRDTFhUE0dczD54iS371q9gwzFWFhx9+OHYMnXYCiAM7l4FaEQcDkUnXjjhIxynXKMRBLmxMckRg2rSp8vR/btOvuC97uPfLjoYPC+SiU9aLg7ceCeTUYwPZbqveP/PatEUFQfj66Vt3lmnTDuSeuKPcGbOIg2xwEQfZeLWORhy0ElE8RhwowsRUYQKLFi2S6Qfs0XSrICzu0efwPQfRtrjX5tbDjKl7i7HPwx0BxEE2toiDbLxaRyMOWokoHiMOFGFiSoXA6aefKvNPH2X9138oALKKg/ln7C6nn366in8YGZgA4mBgNrYexIGNSvo2xEF6VplHIg4yI2OCYwLmkwJzZr1Xrjh3+IACIYs4uOIL28mc2YfJ6tWrHXuOecRBtj2AOMjGq3U04qCViOIx4kARJqbUCJjvIZh75MHyiXmbDfgegvAqwkDP5r0HB+67scw96lBZvvwtNd8wNDABxMEhGXXcAAAgAElEQVTAbGw9iAMblfRtiIP0rDKPRBxkRsaEEglceflXZPyew+S6BYGsWWR/o2GrODDjzPjxYzaXESO25w2IJeYLcZANNuIgG6/W0YiDViKKx4gDRZiYckLA/NbBOacdJWN3HSJnfjCQe68IxHzXQVQUmGPTbvrH7jpUzjn9fY3fSKBYOUnJgEbhPSAaawfiwIoldSPiIDWq7AMRB9mZMaMaAsuWLZO7b7tKzvzHd0nP/ttI9+4by47bbSjdu28iPftvK2d+Yqrcfds3xIwLHxSrkEQ5z/DOxhlxkI1X62jEQSsRxWPEgSJMTJVOIKkYJfWX7nCbLwjvbAlGHGTj1ToacdBKRPEYcaAIE1OlE0gqRkn9pTvc5gvCO1uCEQfZeLWORhy0ElE8RhwowsRU6QSSilFSf+kOt/mC8M6WYMRBNl6toxEHrUQUjxEHijAxVTqBpGKU1F+6w22+ILyzJRhxkI1X62jEQSsRxWPEgSJMTJVOIKkYJfWX7nCbLwjvbAlGHGTj1ToacdBKRPEYcaAIE1OlE0gqRkn9pTvc5gvCO1uCEQfZeLWORhy0ElE8RhwowsRU6QSSilFSf+kOt/mC8M6WYMRBNl6toxEHrUQUjxEHijAxVTqBpGKU1F+6w22+ILyzJRhxkI1X62jEQSsRxWPEgSJMTJVOIKkYJfWX7nCbLwjvbAlGHGTj1ToacdBKRPEYcaAIE1OlE0gqRkn9pTvc5gvCO1uCEQfZeLWORhy0ElE8RhwowsRU6QSSilFSf+kOt/mC8M6WYMRBNl6toxEHrUQUjxEHijAxVTqBpGKU1F+6w22+ILyzJRhxkI1X62jEQSsRxWPEgSJMTJVOIKkYJfWX7nCbLwjvbAlGHGTj1ToacdBKRPEYcaAIE1OlE0gqRkn9pTvc5gvCO1uCEQfZeLWORhy0ElE8RhwowsRU6QSSilFSf+kOt/mC8M6WYMRBNl6toxEHrUQUjxEHijAxVTqBpGKU1F+6w22+ILyzJRhxkI1X62jEQSsRxWPEgSJMTJVOIKkYJfWX7nCbLwjvbAlGHGTj1ToacdBKRPEYcaAIE1OlE0gqRkn9pTvc5gvCO1uCEQfZeLWORhy0ElE8RhwowsRU6QSSilFSf+kOt/mC8M6WYMRBNl6toxEHrUQUjxEHijAxVTqBpGKU1F+6w22+ILyzJRhxkI1X62jEQSsRxWPEgSJMTJVOIKkYJfWX7nCbLwjvbAlGHGTj1ToacdBKRPEYcaAIE1OlE0gqRkn9pTvc5gvCO1uCEQfZeLWORhy0ElE8RhwowsRU6QSSilFSf+kOt/mC8M6WYMRBNl6toxEHrUQUjxEHijAxVTqBpGKU1F+6wxUs2NXVJevWretbufW4r0PhBbyzQUQcZOPVOhpx0EpE8RhxoAgTU6UTSCpG++23n/T09HT0XxAETfG3HmvymTJlSpMQKX1D1GxBxEGxhCEOivGLnY04iMVDp+cEksSB5+6X4l7rlYLW41KcYBErAcSBFUvqRsRBalTZByIOsjNjhj8EEAfJuWgVA63HyRYY4YoA4qAYWcRBMX6xsxEHsXjo9JwA4iA5Qa1ioPU42QIjXBFAHBQjizgoxi92NuIgFg+dnhNAHCQnqFUMtB4nW2CEKwKIg2JkEQfF+MXORhzE4qHTcwKIg+QEGTFg3oTY+hf9BEOyFUa4IIA4KEYVcVCMX+xsxEEsHjo9J4A4yJcgrh7k46Y9C3FQjCjioBi/2NmIg1g8dHpOAHGQL0GIg3zctGchDooRRRwU4xc7G3EQi4dOzwkgDvIlCHGQj5v2LMRBMaKIg2L8YmcjDmLx0Ok5AcSB5wnCvVgCiINYPImdiINERPkHIA7ys2Nm9QQQB9XnAA/yE0Ac5GdnZiIOivGLnY04iMVDp+cEEAeeJwj3YgkgDmLxJHYiDhIR5R+AOMjPjpnVE0AcVJ8DPMhPAHGQn52ZiTgoxi92NuIgFg+dnhNAHHieINyLJYA4iMWT2Ik4SESUfwDiID87ZlZPAHFQfQ7wID8BxEF+dmYm4qAYv9jZiINYPHR6TgBx4HmCcC+WAOIgFk9iJ+IgEVH+AYiD/OyYWT0BxEH1OcCD/AQQB/nZmZmIg2L8YmcjDmLx0Ok5AcSB5wnCvVgCiINYPImdiINERPkHIA7ys2Nm9QQQB9XnAA/yE0Ac5GdnZiIOivGLnY04iMVDp+cEEAeeJwj3YgkgDmLxJHYiDhIR5R+AOMjPjpnVE0AcVJ8DPMhPAHGQn52ZiTgoxi92NuIgFg+dnhNAHHieINyLJYA4iMWT2Ik4SESUfwDiID87ZlZPAHFQfQ7wID8BxEF+dmYm4qAYv9jZiINYPHR6TgBx4HmCcC+WAOIgFk9iJ+IgEVH+AYiD/OyYWT0BxEH1OcCD/AQQB/nZmZmIg2L8YmcjDmLx0Ok5AcSB5wnCvVgCiINYPImdiINERPkHIA7ys2Nm9QQQB9XnAA/yE0Ac5GdnZiIOivGLnY04iMVDp+cEEAeeJwj3YgkgDmLxJHYiDhIR5R+AOMjPjpnVE0AcVJ8DPMhPAHGQn52ZiTgoxi92NuIgFk/HdwZBIN/61rdks802k4MOOkj++te/9jF57LHH5IADDpBNN91URo4cKdddd12jb8mSJY32wYMHi/m77bbb+ua8/fbb0tXVJcZu+Ldu3bq+/tdff13mzZsnw4cPl6OPPlreeOONvj7zonWu2b9mvmkP7dx33319x63jzZpmnFnnmGOO6VvHHEcfrfNC29F1ouN5DYE8BBAHeaitn4M4WM9C/RXiQB1pWxk0xfS4446T1157TS677DI54YQT+uIbO3asfO9735MVK1bINddcI9tss02j8E6ZMkX++Z//uVHYv//97zcEQlhcly9fLptssklfIW8ttmeddZY888wzsmbNGvnmN78pn/nMZ/rWMy+i483rVnFgxMfkyZMbwiNcs3WeOc66Tmgrun6TYxxAIAcBxEEOaJEpiIMIDO2XiANtou1lz4iD3/3ud42gXnnlFRkxYoQ1wNWrVzcVbjNo7dq1cs8998huu+3WJwZeeOEFGTVqVN9xa7EdPXq0GFvm8dJLL8muu+7aN9a0RcfbxMG//du/NQRFeIWgYahlnmlrXSfqo20dxEFIkmdNAoiDYjQRB8X4xc5GHMTi6fhOU2RXrVrV4GD+NW9uE4SPl19+WS666KLGbYBddtnF+q91M99cRQgf5lbEjBkzwsOmYm8ahw4d2ne7wczdaKONUosDc2vAnGxfffXVfnajoiLPOlFxYPwyf4bFrbfe2hcLLyCQlQDiICux5vGIg2YeqkeIA1WcbWfMFME//elPjbiMGNhpp536Ypw2bVrjX+k/+MEPGrcCWguwGWhuK2y44YZ9Bf7yyy+Xz372s302WueYqwqhGOkbFHkRHW9eR28rnHvuuXLVVVc1RkfHmYbW46zrRMVB+NrE1ipeIq7yEgKJBBAHiYhiByAOYvEU60QcFOPX7rONODjttNMa7x+4+OKL5YwzzugL2bxp8Mknn2z8S928F8GMNYXTnPDM5f0333yz8WZE8y/ssKCaNzAuWrSoz0Zr0T7ppJPkqaeekpUrV8rVV1/deGNjONi8sTFqq1UcTJw4se+WRKvd1uOTTz653zqhj2adaNGPzo2+bh0X+skzBNISQBykJWUfhziwc1FpRRyoYGxbI6bgX3LJJTJs2DA56qijGu/yD4M1b0YcM2aM7LjjjnLppZf2iQMjGCZNmtQo5NFL76awGnu2v7Awm/c1mHXMesbGL3/5y8ZyQ4YM6XcZ39iLXjkwVzDCR7SIm7bWY7OO+TREuM4vfvGLpnXMVYHwEZ1rXof+m9ii42zrhDZ4hoCNAOLARiV9G+IgPavMIxEHmZF11ARTCLUe0SIbtTlQe3TMQK99+54Dc+UjFDoD+Uw7BEICiIOQRL5nvbNTvvXbehbioK3TWzg4xEE2hF/4whcQB9mQdfRoxEGx9CMOivGLnY04iMXT8Z2a4sAFTN+uHLiIEZvtSwBxUCy3iINi/GJnIw5i8dDpOQHEgecJwr1YAoiDWDyJnYiDRET5ByAO8rNjZvUEEAfV5wAP8hNAHORnZ2YiDorxi52NOIjFQ6fnBBAHnicI92IJIA5i8SR2Ig4SEeUfgDjIz46Z1RNAHFSfAzzITwBxkJ+dmYk4KMYvdjbiIBYPnZ4TQBx4niDciyWAOIjFk9iJOEhElH8A4iA/O2ZWTwBxUH0O8CA/AcRBfnZmJuKgGL/Y2YiDWDx0ZiRgvnlw9uzZsvnmm8ucOXPkb3/7W5+F6LcLht8yGH5hkPnRpHnz5on5SmbzzYVvvPFG07xvfetbstlmm8lBBx0kf/nLX/r6zK82mq9k3nTTTWXkyJFy3XXX9fW1frlS9Dj6+r777mv6BkXzY0rm65NDH81z6GefcV5AQIEA4qAYRMRBMX6xsxEHsXjozEjA/A6D+XGlZcuWyTXXXCOnnnpqn4VoQTaN0eOzzjqr8eNN5pcfv/nNbzZ+0CmcaMYdd9xx8tprr8lll10m5nccwof5FUfzNc4rVqxorLfNNtv0FfKo/db1wr63335bJk+e3BACoQAwwiD6a4vh2HBNniGgRQBxUIwk4qAYv9jZiINYPHRmJGB+utlcPTAP869/8yuOYdFtLbLR49GjR/f9aNJLL70k5opAdN5vf/vbhk1j21whCPuitxVWr17dJDii9s3k6HH42vxA1Gc+85l+4iD6mwnh2IYD/AcCigQQB8VgIg6K8YudjTiIxUNnRgLmX/LmX//mYf5VPtCvG5r+aNE186KX8VvnmV9pNA9jO9q31157yUUXXdS4JWGESfQWQNR+63qmz9zKMCfnV199tcmX+++/X3bbbbcmf0Ix0nCC/0BAiQDioBhIxEExfrGzEQexeOjMSMBcKQivHJjiO2LEiL5/5ccV61GjRsmqVausq5l5f/zjHxt9L7/8srzjHe/os2nea2D+5W9+kfGZZ55pKvJx65m+c889V6666qqG3ejYhx9+uPGLkP/7v//br8/qII0QyEkAcZAT3N+nIQ6K8YudjTiIxUNnRgInnnhi03sOjj/++D4L0QJsGqPH5tcMn3rqKTFXCK6++urGmwzDiWaceS+DuU1x8cUXyxlnnBF2yQYbbCBPPPFE41//5r0IWa4cTJw4se9WRtSXGTNmyMKFC/vWiPb1NfICAgoEEAfFICIOivGLnY04iMVDZ0YC5l/bRxxxROPTAzNnzpTwX9/GTGuRjR6bqw1HHXWUDBs2rPGv9l/+8pd9K5txl1xySaPPjDFXJMKHuVIxZswY2XHHHeXSSy/tJw6ityrC1+YWgbFprjaEj9CXBx98UHp6evquTJj+sC8cyzMEtAggDoqRRBwU4xc7G3EQi4dODwjEFefoGxLTuBpnK818xkBAkwDioBhNxEExfrGzEQexeOj0gEBcQUcceJAgXMhNAHGQG11jIuKgGL/Y2YiDWDx0ekAAceBBEnDBCQHEQTGsiINi/GJnIw5i8dDpOYGsVw48Dwf3OowA4qBYwhEHxfjFzkYcxOKh03MCiAPPE4R7sQQQB7F4EjsRB4mI8g9AHORnx8zqCSAOqs8BHuQngDjIz87MRBwU4xc7G3EQi4dOzwkgDjxPEO7FEkAcxOL5f+2dCZQV1ZnHbyMgyKqC7HtDd9uiLEEFm8VlJEITEAaNSYgJeJSgCPGoxERHwWWiIiAwLkEUNCdhEZeAiMkYwS0ijIoR8QjizADGNSAy7PDN+dfrW+++6rfWe69eVb1/ndNdVXf97u/Wfd//3apXN2UkxUFKRO4TUBy4Z8echSdAcVD4PqAF7glQHLhnh5wUB9nxS5qb4iApHkb6nADFgc87iOYlJUBxkBRPykiKg5SI3CegOHDPjjkLT4DioPB9QAvcE6A4cM8OOSkOsuOXNDfFQVI8jPQ5AYoDn3cQzUtKgOIgKZ6UkRQHKRG5T0Bx4J4dcxaeAMVB4fuAFrgnQHHgnh1yUhxkxy9pboqDpHgY6XMCFAc+7yCal5QAxUFSPCkjKQ5SInKfgOLAPTvmLDwBioPC9wEtcE+A4sA9O+SkOMiOX9Lc+RQHWCL3sccekyZNmsjAgQPliy++sG156623pH///tbSvm3atJHFixdbcVu2bLHC69WrJ/h79tln7TxHjx61luTVS+9ib25Yynf06NHSrFkzGTVqlOzdu9eMTpjXLGfNmjVWOmQ069HHCM9FPTGG8cQ1AYqD1OiwNsWCBQukadOm1jj8/PPP7UwYhwMGDLDH4aJFi6zlqjEOEa7H4TPPPGPnwThEmXpMYI9lsPWG8TFmzBh7HJpLbCNNnTp1YvIeO3bMyopwfYxxiDpw7kyP+hCei3q0zYXaUxxkRz7WA2RXFnM7CORbHIwbN0727Nkjs2fPlvHjx9u1V1RUyNNPPy0HDhyQhQsXSosWLay4fv36yd1332059hUrVlgfTjrT/v37pWHDhvrUduI6YMqUKfL+++/LkSNHrA/DG2+8UUdZe3yo6C3eMT70+vTpU6tcMy3yZ1uPtoH77AlQHKRmCCeLcbh79257HGpnjvG/fPlyexy2bNnScvRnn322NQ7hgDEO69evbwsAjMOTTjrJPkf5ujxYM3XqVNm0aZM1DvHlAOPQjDdFQLxjjMO+ffta41CLBZRrps1FPanJ5T8FxUF2jKOf6NmVw9xxCORbHGzdutWq9ZtvvpHWrVvHsUDk8OHDtRwyPhRWr14t3bp1s/Ps2rVL2rdvb587nXanTp2sDyQk+PLLL6Vr1652WhyY6eMdP/zww9YHmRnnzIfzbOuJMYonWRGgOEiND877448/thJiHGKmznTWugSMQ6ej1+OwtLTUzoNx2KFDB/vcmadz587WmEa5GIcYw2Z9ppOPd/zII49Y4xDlJhMHXbp0kUOHDlnm63oSpY9Xj253IfcUB9nRpzjIjl/S3PkWB3rw4ts8pij19vXXX8udd95p3QbAII/nkBGGWQS9YQp08ODB+rRWnhNPPNEKQz784duOuZl1OI9xCwKOBrMcZhzyO8+zqQdl4c95y8S0k8fpE6A4SM0KTvbgwYNWQoxDcxYA4/Cuu+6KGYemI0deXK9Io8MxDocMGWKfO8VBgwYNrDz6WjfrgxGJHDXCMf7gMDHLYaZz5sM5ZhF1HdijnnTFgc6HcYhbJrptFiQP/1EcZAeb4iA7fklz51sc7Ny506ofH0L4tqG3qqoq69vBypUrrVsBGKzODdOZdevWtYMffPBBuemmm+xzZ5527drZ31jsRMaBmd55/Ktf/Urmz59vpTbjEOA8z6YebY7zlokO5z4zAhQHqXnBee/YscNKiHHYsWNH2xniWSBM++tx6HT0yKSvVe1A586da41Dfe7Mg9k9/aUgnnWm03ceT5s2zRqHKNuMQznOc3yeaNGTaT1aREAYOEVFvLLyFUZxkB3Z2l4ju/KY2yCQb3Fw7bXXWs8PzJw5UyZPnmzXjIcGN27caH1DwLMI2gHjwx7T+9999531MKI524AHGNevX2+XofPogGuuuUbee+896wMDU5NIrzc82GiWZebFce/eve1bEmYc8jvPs6knkT06nPvMCFAcpOYF5z1p0iTrAT49DrVjb968uWzYsMEahxMmTLBvK8BpPfTQQ/Y4NL/940FFzB7ozSkOJk6cKO+++641Dh999FHrwUZdH8ah6YxNh49jjEPc3sBmxsU7T1bPc889l7QeLQ6c6XSbvNpTHGRHmuIgO35Jc+dbHDzwwAPSuHFjGTlypPXhpI3Bw4hlZWWCb+GzZs2yHTAEAx4KhCPXU37IAwed6E+XifupqAf1oYzNmzdbUfgwMsvS5el8KHfVqlX61LZFBzjFQTb16DY47XHapOvmPjkBioPkfBAL5w1RgF8NYXxg6l5vGIfl5eXWOMRY1Y4e4xAPBepxiNkDXZa+hp17LQAwPvBrIT0OP/jgAysvbsehPJSl05oCAMeYwdCbGYcw53mienBbI1U92nZnunj1aHvysac4yI4qxUF2/JLmzrc4SFp5BpEYzPG2ROHx0vo97Oqrr/a7ib6zj+IgdZdoh586ZeoUicpKFJ66RP+lwMygFi/5to7iIDvC8b1CdmUydw0BigP/XAp47oFbZgQoDlLzyqXjTlRWovDU1vkvxS233EJxkOduyZUoojjIY0cFRRzkEQGLDjABioPUnRcmx526tcFKkSsnGaxWi/WLFP3cRza2UxxkQy9FXrx0CD9L4h8ZFPoawLWY6eZGHOAFP4VuK+vneMM1gGs+F04y03FT6PS5EkUUB4XuSdZPAh4QcOPovcrjQfNZBQkUDQGKg6LpajaUBLIn4JWjd1NP9q1jCSRAApoAxYEmwT0JkEBKAm6ctld5UhrPBCRAAmkToDhIGxUTkgAJeOXo3dTD3iEBEsgdAYqD3LFkSSQQegJunLZXeUIPnw0kAQ8JUBx4CJtVkUDQCXjl6N3UE3S2tJ8E/ESA4sBPvREAW/A61OrqamnatKmMGDFC/vnPf9pW69edmnsdiTXnR48eLVivAa9txQqLekN6rCmPV8dikZkvvvhCR1nvh8f6C40aNbKWsV28eLEd53zzonluHq9ZsybmdctYyAWvZEUa/WcXyoOkBNw4ba/yJDU8ZJEYhxh/ehziXG94Z4K+rvVev00Q43DMmDH2OMS53pBvwYIFVpkYh59//rmOssYh1mvQ43DRokX2S4icr0w2z81jjEPUoX8WqNdw0DZir+PsinlQMAIUBwVDH8yKsUgTVl7ct2+fLFy40FosRrcEg9vczPMpU6ZYKztiOVp8AGGVOb0h3bhx46z3yc+ePVuwyJPeKioqBO+WP3DggFVfixYtdFSMw0egWZ8+Pnr0qLWGgz5HOggDfDDpzYzTYdzHJ+CVo3dTT3yLwxl63XXXWeMQi5/pcagFgPOFSub51KlTZdOmTdYCZhDkGIdmvp/85CfWAk9z5syxxqGOw4vYli9fbo3Dxx9/XFq2bGnnMwUAaJvn+hjjEOtAYKxpAYB1HMylmHXacPZY8FpFcRC8PiuoxZ07d7ZnC/DtH0u/6s3pZM3zTp062Ssqfvnll9K1a1edzfrA2Lp1q3WOb0CtW7e248wDrARnlmkeI515ro+xeiQ+APU50kEc4ENJb2acDuM+PgE3TturPPEtDmdoly5dRM8WYBxiaWTtyE0xgNab5xi/ekVFjMNu3brF5Pv4448tYCi7TZs2dpxJEflNR24eI515ro+xAivGIWwxxUGiBZ7M+nhcGAIUB4XhHthaofbxLQAb9nC0enM6WfMc+XCu/7AKo94QpteWx8yCWSbWtr/zzjutWxL4QDTLNI9RlnmOY3xowjFhhTsz7qWXXrLECcL0n7aF++QEvHL0bupJbnm4YrGqIcYKNoxDc7lmUwwg3jxHPn3NY+/Md/DgQatMlI0xqx05xuFdd90VMw51nBYAVsY44gDjD45m9+7dMcIB4xDixLRHl6nL4r5wBCgOCsc+kDVjpkA/Z4D7la1atbLbgUFubuY5ln3W31jMNDhGup07d1rB+BDCtyC9VVVVWd84sEzs+++/b6XVcWb5CDPPcYxFkubPn28lN+Nee+0161YD6nLmswL4LyEBN07bqzwJjQ5hBMaInjnAOMRsWzozBxi/Wog7sUBE7NixwwrG2OjYsaNdJp5BwDd/PQ7NGYBU4mDatGnWOIR9ZlqMQ9xq+Oqrr6w6zTinbTz3ngDFgffMA10jliw2nzm48sor7faYDhiB5jmWWH3vvfcE30wwxYiHDPWGdHiWAd/0sab95MmTdZT14BTWrce3DjyLYJZpHjvrQ1zv3r3tb1dm2kGDBsm6devsOsw4O5AHcQl45ejd1BPX4JAGYjxhHOpnDjAO0xEHEydOlHfffdcah48++qjgIUMz36RJkwRi44EHHrDGoY47+eSTZcOGDdY4nDBhQsztAadTN89xjHGovxiYcYMHD5a1a9faPWTG2YE8KBgBioOCoQ9mxVD5w4YNs55aHjp0qK360RqnkzXP8S1n5MiR0rhxY+tb++bNm20ASIcPI8QhjfkENR5GLCsrE8w8zJo1K6YO5Iv3p21ZtWpVTB04eeWVV6wFfeyIOHabcTyOJeDGaXuVJ9bScJ9hHA4fPtweh3h+QG/mbQSEmecYh/i1kB6HH3zwgc5mpYM4x6+GMA5xO0BveDagvLzcGocYq86Zg3jjELcI4PAx26BFhhYAGIfnn3++HY56dJyuk/vCEqA4KCx/1p5j54wPKW75I+CVo3dTT/5aXRwlmyIi2xbT0WdLsPD5KQ4K3wdFb0EuHXouyyr6jokDwI3T9ipPHHMZlAEBioMMYBVBUoqDIuhkvzcxlw49l2X5nVsh7PPK0buppxA8wlQnxUGYejP7tlAcZM+QJZBA0RBw47S9ylM0ncCGkoAHBCgOPIDMKkggLAS8cvRu6gkLY7aDBPxAgOLAD71AG0ggIATcOG2v8gQEIc0kgUAQoDgIRDfRSBLwBwGvHL2bevxBiFaQQDgIUByEox/ZChLwhIAbp+1VHk8AsBISKBICFAdF0tFsJgnkgoBXjt5NPbloH8sgARKIEKA44JVAAiSQNgE3TturPGk3gglJgARSEqA4SImICUiABDQBrxy9m3q0jdyTAAlkT4DiIHuGLIEEioaAG6ftVZ6i6QQ2lAQ8IEBx4AFkVkECYSHglaN3U09YGLMdJOAHAhQHfugF2kACASHgxml7lScgCGkmCQSCAMVBILqJRpKAPwh45ejd1OMPQrSCBMJBgOIgHP3IVpCAJwTcOG2v8ngCgJWQQJEQoDgoko5mM0nADYHvvvtODh06ZGd1Ovrdu3fLsWPH7HgcfPPNNzHnzjzOeJSPeszNzLNv3z45ePCgGc1jEiCBPBOgOMgzYBZPAkEmcOTIEYcW+l0AABaWSURBVBk8eLCsXr3aaoZ22sePH5eFCxfK2LFjazXvySeflAkTJsjXX38dk2fnzp3ywx/+UF544YVaeYYNGyZLliyxw3U9y5Ytk6FDhwrq40YCJOAdAYoD71izJhIIJIE77rhDlFIyatQo6d69u2zcuFHOPfdcK+zpp5+u1aYDBw5Iy5Yt5ZRTTpGHH35YKioq5L777pMmTZpI165d5ejRo7XyPPLII1Z5F1xwgXz44YdWPRdeeKEVNn/+/FrpGUACJJBfAhQH+eXL0kkg8AQ+++wzqV+/vuWo69WrJyeccIJ13K5dOzl8+HDc9t18881WGoiKOnXq2McQCfE23FZo3ry5XUfdunWtYwiKb7/9Nl4WhpEACeSRAMVBHuGyaBIIC4HLLrvMdvBw+PibPn16wuZt375dtIPX6Rs2bChfffVVwjyTJ0+uVcekSZN4SyEhMUaQQP4IUBzkjy1LJoHQEFi7dm2M48YMAmYUkm0jRoyIyfOzn/0sWXLZsmVLzCxDSUmJ/P3vf0+ah5EkQAL5IUBxkB+uLJUEQkegZ8+etrO//PLLU7YPDzHCweuZg/Xr16fMc9FFF9nphwwZwlmDlMSYgATyQ4DiID9cWSoJhI7AQw89ZDvudevWpWwffmFQWlpq5enXr19ajn7FihW2oFi6dGnKOpiABEggPwQoDvLDlaWSQOgI7N27V5o1ayaYQUj3p4UzZ860xMGiRYvS4oGfTnbo0EHatm2b8GHHtApiIhIggawIUBxkhY+ZSaC4CFx77bXWzxPTbTVeeARnv3///nSzyIwZM+T2229POz0TkgAJ5J4AxUHumbJEEnBNYNu2bVI9/BLp06tchgzs5bu/c75XIQMHnJmRXX1798go/YBzKqX/OZUZ5fGKFfqlunqYbN261XUfMyMJBIEAxUEQeok2FgWBPXv2SHn3drLywUYiGxX/fMpg5bzmUtGjg+DV0dxIIKwEKA7C2rNsV+AI3Hv3jTLnxroUBT4VBaZgm3NTA7n3nlvSfvYicBcjDS56AhQHRX8JEIBfCJzXr5N881fOGJhO2K/H6Keqc0opDvwyeGhHzglQHOQcKQskAXcETu9+MmcNAjBroAVLZVlLigN3lzpzBYAAxUEAOokmFgcBioNgzZpQHBTHuCzWVlIcFGvPs92+I0BxQHHgu4uSBhUtAYqDou16NtxvBCgOKA78dk3SnuIlQHFQvH3PlvuMAMUBxYHPLkmaU8QEKA6KuPPZdH8RoDigOPDXFUlripkAxUEx9z7b7isCqcTBRyuUDK9S0uQkJZ3bKvmPacFypvop/7Ds+UCir4YPjckxAYqDHANlcSTglkAycfCPl5S0P03JkzOUfPeqks3LlJzZXckjv6ZAKJTYoDhwe6UzXxAIUBwEoZdoY1EQSCYOplyh5O5JsULgb08o6Xd6bFihHGUx1ktxUBTDsmgbSXFQtF3PhvuNQDJx0KOjkvf+UFsIHN8QDft2nZLRFyhp1ljJqCFK9r4ajStRSn70/eg5nPmIQcpaTvl4zYuH3lqkpP+ZSho1VNKmhZLF06PpkV+nQ159jr1y/CFdSYkSbduaeTXpa2w146yyjLTONnxrtGH3K0pGn6/kpAZKzuim5O0nDfuMMiCa6teL1I82DTDatMho0zP3R9KZ9mub0xE7FAd+G0G0J5cEKA5ySZNlkUAWBJKJg4Ynxjr7eM4LswvvL1FyZL2SBbcquXGc4TyVkp6lkVsSyIvX/7Y5NVYcnN5FydP3KTnwppKF/6akRfOoINBiQNeb8rzGWR99W0nf8pp60hAHydpwzWgly36r5OCbkfZBIGhnrgXHjtVKLj1fyYE3Im0/vauS5UabWqJNNXZAQEAg2G0yBIYOS7anOMjiYmdW3xOgOPB9F9HAYiGQTBzg2/L+GoeXyGF1ahMRBoj/8i9KurYzHJ9ScvNPI88sIP7hW5RMHBMrDsxyD78VnR1AeEox4JxZqHG0qAciBd/OTaf87EzDNsMp40FL1K3b0K19NF+705Tsey2az7QX4gAzC9VVSlbcFz+N1SajLogDM60WGGa5yY4pDoplZBZnOykOirPf2WofEkgmDvAN+MPlsU4PYmHJPdGwE+tHnLCeJofz084Nzn3Dk0ouPjcSdt5ZSl5fGCsOvn5ZyZ2/iNya6NI2Ng75dbl6H+82g11fiRLcIjijq5Lda2NvM8AhQ+ws/feIDZbwqPk23+DE2Hr07QGUi+Njb0fbpOvCHo4dduG2imlX3DbV1PXSfCXd2sXWpwWMWXaiY4oDHw4impQzAhQHOUPJgkggOwLJxMHUH9V+IHH5vUrg5LXzwjdr/a1bh+m9/uZf2l4J7snD+R/bEDsjUNUr8i1/5ezI7QmdB2WYx2mdlyj51c+UzL85Yp/zWzkEAn6S+b3TI85ZO+X2rZQc+lu0Tdp+7Du2Tjx7gvL/e6WSi89R8tSMaP6BvR1tMmYOXnsscsvjq/+Mb6NZd7xjioPsrnfm9jcBigN/9w+tKyICycTBp39SctopSv54T2RqHd/6O7RS8vysqCPEPXk8tIh78viJIx4u1E5NO3dM8eN2w2/G1zhE43ZA88ZKNj4VmZ4f/4Map13zsKLO7ywv4XmJkt5lSg6vT+14TeEQrw1aOFx3mZLVcyPtw4wJnqHQcboMPEuBWRb89BO2NW8SmTHBLYcJuk01MweD+ypZ+zuDkSEcdLuS7SkOimhwFmFTKQ6KsNPZZH8SSCYO4KQgCM7tGZmSL+2g5Inbo44N8XCMIwcraXySkj7lkXchaOemnfv6xRGnv7nmFoUORzo8jFjWSQlmIGbdkL04WDknap923toec2/GOdvwwbJoGXDwYy6ItA/C4x3j1xtmGWgH0kE44LjcaJPV3g1KXnlUyZC+UXEBe8wyTPsSHVMc+HMc0arcEKA4yA1HlkICWRNIJQ4SOSmGRwWElywoDrK+5FmAjwlQHPi4c2hacRGgOCiMk3crKCgOimt8Fktr69SpI0ePHhUtDk444QTr3G37lduMzEcCJBAhQHFAccCxQAKFJkBxUOgeYP0k4CBAcUBx4LgkeEoCnhOgOPAcOSskgeQEKA4oDpJfIYwlgfwToDjIP2PWQAIZEaA4oDjI6IJhYhLIAwGKgzxAZZEkkA0BioPcioNdLyr51wuUnNw08vPHsRcp+azm/QduH0I08/GBxGyudub1KwGKA7/2DO0qWgIUB7kVB3h7JN7XsGdt5G/alUouPDv23Qams8/0mOKgaIdqqBsOcaBfkW7u8QsGNxt/reCGGvOQgEGA4iC34sDp7LHWA9Z00G9VdMZnek5xYFy8PAwdAf1TRjQsm58zUhyE7tJgg7wmkAtxYCp9fawXIsLbAR+7LbKmAdYc+OLPUWeMNxNWD1TStJGSEYOU/POv0TjzLYpwoOY5HC4WO2rWWMmoIbHLSmO5Zrx1UNuBvemY8ZbHT/4UqWfrs0qwZLSOR74Fhq2fG7a+tSjyauhGDZW0aaFk8fSorfEcPMpEW2ffoOTyi6N1xEubSRjFgdcjhPV5SYDiwEvarIsEkhDIlTgwHZzlkI31EcYNi0yxw1Fi/QSd9trLlDx4Y2TdhoX/pmTS2GicKQaQ3jyfckVkkaYj65UsuDWyyJEuE6tGmt/Una8nxpLR82oWZpp7k5IbfmzUWaIEtmJFR22rFjlYOwGvRT7wphLY2qJ5coevXykNMfHm49E6tJ1u9xQHSS5mRgWeAMVB4LuQDQgLAS/EwcfPRpwjZgranBpd3hirNCIMjnLvq0o6nBaNM8UA4s3zzm2iiyt9+ZfIok7aieOBQKucmoWOnOLg2ZlKhvaP1DNsgJK/PBR13Ej78TOGrS3iCwCsQuksN56zxyzG9ZfHLtYUL10mYRQHYRl5bEc8AqY4iBefbhhvK6RLiulIIAEBL8TBwZrlkPFNv37dqABoUF/JkbcjzhiO1IwzxYBTHCCfedugfr1omZj+H9wneu504rgl0aSREiyZjBUnD7wRKw6wuiTqs2xFuTUi4+uXldz5i8jtDIga5+2KRA4eCzedWD9aTqJ06YZTHCS4kBkcCgIUB6HoRjYiDAS8EAc7VkccLhxsx1ZRx41v+HrmAE679SnRuGTioP1pSg69FXXqpmPFbYqbfhqNc4oDpB3YS8nUHyn5waBofQhH2h0vGLa2jjp1PC+BpadXzo7c0ohXrmmHPoYI6dQmWo4Od7unOAjDqGMbEhGgOEhEhuEk4DEBL8QBni3AbYOZU5VMvjzquK8eHfvMwZXV0bhk4uCa0Ure+4MSfMt/5NeRBwW1sx1wphIsEa3P4znxGROV1Kur5OFboumQHmkT2dq8iZINTyrBTACem0g0c9CrTMmy3yo59Dcl372q5JafK5l+TWw92jY3e4oDjwcIq/OUAMWBp7hZGQkkJuCFOHjgl5EXAuEhPcwQaKeIb9XDzlOCh/bwHADOdRzEgXnrQB/j2QLMNugH/vqUK9m8LJIPzl2nc+717QGUD/GA8j+t+dWCXWeJEtPWPYateBixrJOSdqdF3mOA8s0ydRn4BcQlAyLtRdrbrorcotDx2e4pDhJfy4wJPgGKg+D3IVsQEgK5EAfJHJ5zBiBZ2lRxqcqKN0uAMp3hn61R0rNb7C2FeOlS2VOIeIqDkAw8NiMuAYqDuFgYSALeEyg2cbDvtchU/6/HR2cptJN3iggd7qc9xYH3Y4Q1ekeA4sA71qyJBJISCJM4SMeJ45cK+DWDectA56M4SHqpMJIE8k6A4iDviFkBCaRHIN/iQDte7mvPVLhhwpmD9K5rpgomAYqDYPYbrQ4hAYqD3DhtN47eTR6KgxAOQjbJJkBxYKPgAQkUlgDFAcVBYa9A1k4CUQIUB1EWPCKBghI4r18n+0VEbr7JMo934gI/4aw6p1SOHz9e0GuGlZNAvghQHOSLLMslgQwJ3Hv3zTLnxnr2+wXo7L1z9pmynnPTSXLvPb+hOMjwGmfy4BCgOAhOX9HSkBPYs2ePlPdoLyvnNqNAqFlJMlOn7UX6lfNaSkWPjrJ79+6QX5FsXjEToDgo5t5n231HYNu2bVJdPVz69KqQIQN7heKve2n7ULQD/dGn1+lSXV0tW7du9d21Q4NIIJcEKA5ySZNlkQAJ1CJQWVnJ6fdaVBhAAv4mQHHg7/6hdSQQeAIUB4HvQjagCAlQHBRhp7PJJOAlAYoDL2mzLhLIDQGKg9xwZCkkQAIJCFAcJADDYBLwMQGKAx93Dk0jgSAS2LFjR4zZTnHgjI9JzBMSIAFfEKA48EU30AgSCA+BpUuXyqhRo+TTTz+1GqXFwUcffSQXXnihvPzyy+FpLFtCAiElQHEQ0o5ls0igUAQOHz4sbdu2lYYNG8qMGTOkrKxMpk2bJvXr15eKigr+cqFQHcN6SSADAhQHGcBiUhIggfQI3H777aKUsv7q1KljH8+bNy+9ApiKBEigoAQoDgqKn5WTQDgJ7Nq1y5op0AIB+8aNGwveAsmNBEjA/wQoDvzfR7SQBAJJYOzYsfaMAcTBxIkTA9kOGk0CxUiA4qAYe51tJgEPCLzyyitSUlJiC4RNmzZ5UCurIAESyAUBioNcUGQZJEACcQnglwqYNRg0aBAfRIxLiIEk4E8CFAf+7BdaRQKhIDB//nxLHCxZsiQU7WEjSKBYCFAcFEtPs50kUAAC3377rfTo0UMOHTpUgNpZJQmQgFsCFAduyTEfCZBAXALvvPOO3HbrLTL8+wOl95ndpHu31tL7zFIZ/v1BctttvxbEcyMBEvA3AYoDf/cPrSOBwBBYunSJnHVGJ7n04rby1F315dM/KTn8lhLZGNnj/Km7GsilQ9vLWWd0EbxJkRsJkIA/CVAc+LNfaBUJBIbA9u3bpap/Txk/+lTZ9WJEDEAQJPtDuvFjWklV/7Nk+/ZPAtNWGkoCxUKA4qBYeprtJIE8EFi3bp1UlrWS1x+vk1QMJBIKrz9eVyrL2wrK4UYCJOAfAhQH/ukLWkICgSIAh967sqX8z6rkswSJhIEOR/4+Z7ShQAhU79PYsBOgOAh7D7N9JJAHAriVUFnWJmthEBUIJXJGeQf55BPeYshDd7FIEsiYAMVBxsiYgQRIoGpAX3nj8bqubiVoQeDcv/FEQ6k672y+LImXFwn4gADFgQ86gSaQQJAI4FcG48d2zqkw0EJh/GXl/BVDkC4G2hpaAhQHoe1aNowE8kOg91kVsuvFkqTiYO+rSiaNVdL6VCX16ipp00LJ5Rcr2fZc8ucTdq2pK73PquTsQX66jqWSQNoEKA7SRsWEJEACeIHRpZecnlQYYBbgx5co67XJy+5VcvBNJc/cr6REKansquR4ip85jh7eW955578ImwRIoIAEKA4KCJ9Vk0DQCNx6663y+/u7pxQHjU+KiIPtzyefKdC3E8z97x/oI6iHGwmQQOEIUBwUjj1rJoHAEaiurpZPVp2SUhyUdYqIg9IOSl6cm5lA+GRNqaCe48ePB44PDSaBsBCgOAhLT7IdJOABgT59esvBN5M/b4BZgBX3KTmhTkQgWEs291HytyfSEwkH1zcX1ENx4EGHsgoSSECA4iABGAaTAAnUJlBZWZHymQF9i+C1x5R87/SoQKhTR8nvfpOGQHingbRr11aGDBnCPzLgNVCga6Bfv35y7Nix2h8CGYaoDNMzOQmQQAAJ9O3bVw6sb5LytoIWCMc3KHl+VuRBRMwgtDtNCcJ0fLz9gY2dpW/fPpw5COD1QZNJwEmA4sBJhOckEEICI0aMkG0vdkvq3OM5/C/+rKSkREmjhqnFwbY/9xPUw9sKIbyA2KSiI0BxUHRdzgYXI4Hp06fLwvsvSCkO+tXcTvjjPZGfMj5xe+T2wrhhyWcNICwWzhopqIcbCZBA8AlQHAS/D9kCEkhJYMuWLXLxBX1TioP/fUHJZf+ipNUpkZcg4WVI14xWgpcjxZtZMMOGXthftnz4YUpbmIAESMD/BCgO/N9HtJAEckKgquo82fRM15RO3nT46R5ver6XVFVV8ZZCTnqKhZBA4QlQHBS+D2gBCXhCYP369TJoQGXKBwvTFQQ6HR5UHHxeL0H53EiABMJBgOIgHP3IVpBAWgSuu+46uWNK6tcoa8efzv6OX35PUC43EiCB8BCgOAhPX7IlJJCSwJEjR2RE9TCZ+5v2Obm9MPfW7jJixHA5fPhwyrqZgARIIDgEKA6C01e0lARyQmD//v1y6ahhctXY1vJ/r6d+0DDe7AHyXXVZB7l01AhBedxIgATCRYDiIFz9ydaQQNoE5s2dIz3LW8ji6SfIkfXpiQSkWzy9rvQsP03mzZubdl1MSAIkECwCFAfB6i9aSwI5JfCPf/xDbrj+51JR2lSuv6KutdgSfs5ozhbgHIswXX9FPakobS43TLlKkI8bCZBAeAlQHIS3b9kyEkibwL59++SFVc/I9dcMlyEDOktlj+ZyZnkzqexxsnV+/cSR8sKq5wTpuJEACYSfAMVB+PuYLSQBEiABEiCBjAhQHGSEi4lJgARIgARIIPwEKA7C38dsIQmQAAmQAAlkRIDiICNcTEwCJEACJEAC4SdAcRD+PmYLSYAESIAESCAjAhQHGeFiYhIgARIgARIIPwGKg/D3MVtIAiRAAiRAAhkRoDjICBcTkwAJkAAJkED4CVAchL+P2UISIAESIAESyIgAxUFGuJiYBEiABEiABMJPgOIg/H3MFpIACZAACZBARgT+H70r0MVDsfXUAAAAAElFTkSuQmCC;" parent="1" vertex="1">
          <mxGeometry x="-320" y="160" width="519" height="799" as="geometry" />
        </mxCell>
        <mxCell id="3Uw4bCDfF3RCXjcIqz_q-23" value="Сематическая процедура 3&amp;nbsp;" style="rounded=1;whiteSpace=wrap;html=1;fillColor=#d5e8d4;strokeColor=#82b366;" parent="1" vertex="1">
          <mxGeometry x="380" y="370" width="120" height="60" as="geometry" />
        </mxCell>
        <mxCell id="3Uw4bCDfF3RCXjcIqz_q-24" style="edgeStyle=orthogonalEdgeStyle;rounded=0;orthogonalLoop=1;jettySize=auto;html=1;exitX=0.5;exitY=1;exitDx=0;exitDy=0;" parent="1" source="3Uw4bCDfF3RCXjcIqz_q-26" target="3Uw4bCDfF3RCXjcIqz_q-31" edge="1">
          <mxGeometry relative="1" as="geometry" />
        </mxCell>
        <mxCell id="3Uw4bCDfF3RCXjcIqz_q-25" value="Ц" style="edgeLabel;html=1;align=center;verticalAlign=middle;resizable=0;points=[];" parent="3Uw4bCDfF3RCXjcIqz_q-24" connectable="0" vertex="1">
          <mxGeometry x="-0.2379" y="3" relative="1" as="geometry">
            <mxPoint x="-13" as="offset" />
          </mxGeometry>
        </mxCell>
        <mxCell id="3Uw4bCDfF3RCXjcIqz_q-26" value="S" style="ellipse;whiteSpace=wrap;html=1;aspect=fixed;fillColor=#d5e8d4;strokeColor=#82b366;" parent="1" vertex="1">
          <mxGeometry x="420" y="170" width="40" height="40" as="geometry" />
        </mxCell>
        <mxCell id="3Uw4bCDfF3RCXjcIqz_q-27" style="edgeStyle=orthogonalEdgeStyle;rounded=0;orthogonalLoop=1;jettySize=auto;html=1;exitX=0.5;exitY=1;exitDx=0;exitDy=0;entryX=0.5;entryY=0;entryDx=0;entryDy=0;" parent="1" source="3Uw4bCDfF3RCXjcIqz_q-31" target="3Uw4bCDfF3RCXjcIqz_q-23" edge="1">
          <mxGeometry relative="1" as="geometry" />
        </mxCell>
        <mxCell id="3Uw4bCDfF3RCXjcIqz_q-28" value="Разделитель,&lt;br&gt;&amp;nbsp;операция" style="edgeLabel;html=1;align=center;verticalAlign=middle;resizable=0;points=[];" parent="3Uw4bCDfF3RCXjcIqz_q-27" connectable="0" vertex="1">
          <mxGeometry x="-0.1421" y="-1" relative="1" as="geometry">
            <mxPoint x="41" y="6" as="offset" />
          </mxGeometry>
        </mxCell>
        <mxCell id="3Uw4bCDfF3RCXjcIqz_q-29" style="edgeStyle=orthogonalEdgeStyle;rounded=0;orthogonalLoop=1;jettySize=auto;html=1;exitX=1;exitY=0.5;exitDx=0;exitDy=0;entryX=0.5;entryY=0;entryDx=0;entryDy=0;" parent="1" source="3Uw4bCDfF3RCXjcIqz_q-31" target="3Uw4bCDfF3RCXjcIqz_q-42" edge="1">
          <mxGeometry relative="1" as="geometry">
            <mxPoint x="550" y="270" as="targetPoint" />
          </mxGeometry>
        </mxCell>
        <mxCell id="3Uw4bCDfF3RCXjcIqz_q-41" value="ТОЧКА" style="edgeLabel;html=1;align=center;verticalAlign=middle;resizable=0;points=[];" parent="3Uw4bCDfF3RCXjcIqz_q-29" connectable="0" vertex="1">
          <mxGeometry x="-0.2467" y="2" relative="1" as="geometry">
            <mxPoint x="-21" y="-8" as="offset" />
          </mxGeometry>
        </mxCell>
        <mxCell id="3Uw4bCDfF3RCXjcIqz_q-31" value="q3" style="ellipse;whiteSpace=wrap;html=1;aspect=fixed;fillColor=#d5e8d4;strokeColor=#82b366;" parent="1" vertex="1">
          <mxGeometry x="420" y="250" width="40" height="40" as="geometry" />
        </mxCell>
        <mxCell id="3Uw4bCDfF3RCXjcIqz_q-34" style="edgeStyle=orthogonalEdgeStyle;rounded=0;orthogonalLoop=1;jettySize=auto;html=1;exitX=0;exitY=1;exitDx=0;exitDy=0;entryX=0;entryY=0;entryDx=0;entryDy=0;" parent="1" source="3Uw4bCDfF3RCXjcIqz_q-31" target="3Uw4bCDfF3RCXjcIqz_q-31" edge="1">
          <mxGeometry relative="1" as="geometry">
            <Array as="points">
              <mxPoint x="380" y="284" />
              <mxPoint x="380" y="256" />
            </Array>
          </mxGeometry>
        </mxCell>
        <mxCell id="3Uw4bCDfF3RCXjcIqz_q-35" value="Ц" style="edgeLabel;html=1;align=center;verticalAlign=middle;resizable=0;points=[];" parent="3Uw4bCDfF3RCXjcIqz_q-34" connectable="0" vertex="1">
          <mxGeometry x="0.0219" y="-2" relative="1" as="geometry">
            <mxPoint x="-12" y="1" as="offset" />
          </mxGeometry>
        </mxCell>
        <mxCell id="3Uw4bCDfF3RCXjcIqz_q-45" style="edgeStyle=orthogonalEdgeStyle;rounded=0;orthogonalLoop=1;jettySize=auto;html=1;exitX=0;exitY=0.5;exitDx=0;exitDy=0;entryX=1;entryY=0.5;entryDx=0;entryDy=0;" parent="1" source="3Uw4bCDfF3RCXjcIqz_q-42" target="3Uw4bCDfF3RCXjcIqz_q-23" edge="1">
          <mxGeometry relative="1" as="geometry" />
        </mxCell>
        <mxCell id="3Uw4bCDfF3RCXjcIqz_q-42" value="q4" style="ellipse;whiteSpace=wrap;html=1;aspect=fixed;fillColor=#d5e8d4;strokeColor=#82b366;" parent="1" vertex="1">
          <mxGeometry x="600" y="380" width="40" height="40" as="geometry" />
        </mxCell>
        <mxCell id="3Uw4bCDfF3RCXjcIqz_q-43" style="edgeStyle=orthogonalEdgeStyle;rounded=0;orthogonalLoop=1;jettySize=auto;html=1;exitX=1;exitY=1;exitDx=0;exitDy=0;entryX=1;entryY=0;entryDx=0;entryDy=0;" parent="1" source="3Uw4bCDfF3RCXjcIqz_q-42" target="3Uw4bCDfF3RCXjcIqz_q-42" edge="1">
          <mxGeometry relative="1" as="geometry">
            <Array as="points">
              <mxPoint x="670" y="414" />
              <mxPoint x="670" y="386" />
            </Array>
          </mxGeometry>
        </mxCell>
        <mxCell id="3Uw4bCDfF3RCXjcIqz_q-44" value="Ц" style="edgeLabel;html=1;align=center;verticalAlign=middle;resizable=0;points=[];" parent="3Uw4bCDfF3RCXjcIqz_q-43" connectable="0" vertex="1">
          <mxGeometry x="-0.0145" y="-2" relative="1" as="geometry">
            <mxPoint x="8" y="-1" as="offset" />
          </mxGeometry>
        </mxCell>
        <mxCell id="3Uw4bCDfF3RCXjcIqz_q-47" value="Разделитель,&lt;br&gt;&amp;nbsp;операция" style="edgeLabel;html=1;align=center;verticalAlign=middle;resizable=0;points=[];" parent="1" connectable="0" vertex="1">
          <mxGeometry x="550" y="380.00275862068975" as="geometry" />
        </mxCell>
        <mxCell id="3Uw4bCDfF3RCXjcIqz_q-48" value="Сематическая процедура 4&amp;nbsp;" style="rounded=1;whiteSpace=wrap;html=1;fillColor=#d5e8d4;strokeColor=#82b366;" parent="1" vertex="1">
          <mxGeometry x="360" y="695" width="120" height="60" as="geometry" />
        </mxCell>
        <mxCell id="3Uw4bCDfF3RCXjcIqz_q-49" style="edgeStyle=orthogonalEdgeStyle;rounded=0;orthogonalLoop=1;jettySize=auto;html=1;exitX=0.5;exitY=1;exitDx=0;exitDy=0;" parent="1" source="3Uw4bCDfF3RCXjcIqz_q-51" target="3Uw4bCDfF3RCXjcIqz_q-56" edge="1">
          <mxGeometry relative="1" as="geometry" />
        </mxCell>
        <mxCell id="3Uw4bCDfF3RCXjcIqz_q-50" value="&quot;" style="edgeLabel;html=1;align=center;verticalAlign=middle;resizable=0;points=[];" parent="3Uw4bCDfF3RCXjcIqz_q-49" connectable="0" vertex="1">
          <mxGeometry x="-0.2379" y="3" relative="1" as="geometry">
            <mxPoint x="-13" as="offset" />
          </mxGeometry>
        </mxCell>
        <mxCell id="3Uw4bCDfF3RCXjcIqz_q-51" value="S" style="ellipse;whiteSpace=wrap;html=1;aspect=fixed;fillColor=#d5e8d4;strokeColor=#82b366;" parent="1" vertex="1">
          <mxGeometry x="400" y="540" width="40" height="40" as="geometry" />
        </mxCell>
        <mxCell id="3Uw4bCDfF3RCXjcIqz_q-52" style="edgeStyle=orthogonalEdgeStyle;rounded=0;orthogonalLoop=1;jettySize=auto;html=1;exitX=0.5;exitY=1;exitDx=0;exitDy=0;entryX=0.5;entryY=0;entryDx=0;entryDy=0;" parent="1" source="3Uw4bCDfF3RCXjcIqz_q-56" target="3Uw4bCDfF3RCXjcIqz_q-48" edge="1">
          <mxGeometry relative="1" as="geometry" />
        </mxCell>
        <mxCell id="3Uw4bCDfF3RCXjcIqz_q-56" value="q5" style="ellipse;whiteSpace=wrap;html=1;aspect=fixed;fillColor=#d5e8d4;strokeColor=#82b366;" parent="1" vertex="1">
          <mxGeometry x="400" y="620" width="40" height="40" as="geometry" />
        </mxCell>
        <mxCell id="3Uw4bCDfF3RCXjcIqz_q-57" style="edgeStyle=orthogonalEdgeStyle;rounded=0;orthogonalLoop=1;jettySize=auto;html=1;exitX=0;exitY=1;exitDx=0;exitDy=0;entryX=0;entryY=0;entryDx=0;entryDy=0;" parent="1" source="3Uw4bCDfF3RCXjcIqz_q-56" target="3Uw4bCDfF3RCXjcIqz_q-56" edge="1">
          <mxGeometry relative="1" as="geometry">
            <Array as="points">
              <mxPoint x="360" y="654" />
              <mxPoint x="360" y="626" />
            </Array>
          </mxGeometry>
        </mxCell>
        <mxCell id="3Uw4bCDfF3RCXjcIqz_q-64" value="&quot;" style="edgeLabel;html=1;align=center;verticalAlign=middle;resizable=0;points=[];" parent="1" connectable="0" vertex="1">
          <mxGeometry x="440" y="585.0024137931033" as="geometry">
            <mxPoint x="-30" y="89" as="offset" />
          </mxGeometry>
        </mxCell>
        <mxCell id="3Uw4bCDfF3RCXjcIqz_q-65" value="Сематическая процедура 5&amp;nbsp;" style="rounded=1;whiteSpace=wrap;html=1;fillColor=#d5e8d4;strokeColor=#82b366;" parent="1" vertex="1">
          <mxGeometry x="354" y="950" width="120" height="60" as="geometry" />
        </mxCell>
        <mxCell id="3Uw4bCDfF3RCXjcIqz_q-66" style="edgeStyle=orthogonalEdgeStyle;rounded=0;orthogonalLoop=1;jettySize=auto;html=1;exitX=0.5;exitY=1;exitDx=0;exitDy=0;entryX=0.5;entryY=0;entryDx=0;entryDy=0;" parent="1" source="3Uw4bCDfF3RCXjcIqz_q-68" target="3Uw4bCDfF3RCXjcIqz_q-73" edge="1">
          <mxGeometry relative="1" as="geometry">
            <mxPoint x="414" y="920" as="targetPoint" />
          </mxGeometry>
        </mxCell>
        <mxCell id="3Uw4bCDfF3RCXjcIqz_q-67" value="операция" style="edgeLabel;html=1;align=center;verticalAlign=middle;resizable=0;points=[];" parent="3Uw4bCDfF3RCXjcIqz_q-66" connectable="0" vertex="1">
          <mxGeometry x="-0.2379" y="3" relative="1" as="geometry">
            <mxPoint x="-47" y="5" as="offset" />
          </mxGeometry>
        </mxCell>
        <mxCell id="3Uw4bCDfF3RCXjcIqz_q-68" value="S" style="ellipse;whiteSpace=wrap;html=1;aspect=fixed;fillColor=#d5e8d4;strokeColor=#82b366;" parent="1" vertex="1">
          <mxGeometry x="394" y="800" width="40" height="40" as="geometry" />
        </mxCell>
        <mxCell id="3Uw4bCDfF3RCXjcIqz_q-77" style="edgeStyle=orthogonalEdgeStyle;rounded=0;orthogonalLoop=1;jettySize=auto;html=1;exitX=0.5;exitY=1;exitDx=0;exitDy=0;entryX=0.5;entryY=0;entryDx=0;entryDy=0;" parent="1" source="3Uw4bCDfF3RCXjcIqz_q-73" target="3Uw4bCDfF3RCXjcIqz_q-65" edge="1">
          <mxGeometry relative="1" as="geometry" />
        </mxCell>
        <mxCell id="3Uw4bCDfF3RCXjcIqz_q-78" value="разделиитель" style="edgeLabel;html=1;align=center;verticalAlign=middle;resizable=0;points=[];" parent="3Uw4bCDfF3RCXjcIqz_q-77" connectable="0" vertex="1">
          <mxGeometry x="-0.308" y="1" relative="1" as="geometry">
            <mxPoint x="-45" as="offset" />
          </mxGeometry>
        </mxCell>
        <mxCell id="3Uw4bCDfF3RCXjcIqz_q-73" value="q6" style="ellipse;whiteSpace=wrap;html=1;aspect=fixed;fillColor=#d5e8d4;strokeColor=#82b366;" parent="1" vertex="1">
          <mxGeometry x="394" y="880" width="40" height="40" as="geometry" />
        </mxCell>
        <mxCell id="3Uw4bCDfF3RCXjcIqz_q-75" style="edgeStyle=orthogonalEdgeStyle;rounded=0;orthogonalLoop=1;jettySize=auto;html=1;exitX=1;exitY=1;exitDx=0;exitDy=0;entryX=1;entryY=0;entryDx=0;entryDy=0;" parent="1" source="3Uw4bCDfF3RCXjcIqz_q-73" target="3Uw4bCDfF3RCXjcIqz_q-73" edge="1">
          <mxGeometry relative="1" as="geometry">
            <Array as="points">
              <mxPoint x="470" y="914" />
              <mxPoint x="470" y="886" />
            </Array>
          </mxGeometry>
        </mxCell>
        <mxCell id="3Uw4bCDfF3RCXjcIqz_q-76" value="операция" style="edgeLabel;html=1;align=center;verticalAlign=middle;resizable=0;points=[];" parent="1" connectable="0" vertex="1">
          <mxGeometry x="414" y="890.0024137931033" as="geometry">
            <mxPoint x="95" y="8" as="offset" />
          </mxGeometry>
        </mxCell>
        <mxCell id="3Uw4bCDfF3RCXjcIqz_q-92" style="edgeStyle=orthogonalEdgeStyle;rounded=0;orthogonalLoop=1;jettySize=auto;html=1;exitX=0.622;exitY=0.026;exitDx=0;exitDy=0;entryX=1;entryY=1;entryDx=0;entryDy=0;exitPerimeter=0;" parent="1" source="3Uw4bCDfF3RCXjcIqz_q-79" target="3Uw4bCDfF3RCXjcIqz_q-82" edge="1">
          <mxGeometry relative="1" as="geometry" />
        </mxCell>
        <mxCell id="3Uw4bCDfF3RCXjcIqz_q-79" value="Сематическая процедура 6&amp;nbsp;" style="rounded=1;whiteSpace=wrap;html=1;fillColor=#d5e8d4;strokeColor=#82b366;" parent="1" vertex="1">
          <mxGeometry x="680" y="635" width="120" height="60" as="geometry" />
        </mxCell>
        <mxCell id="3Uw4bCDfF3RCXjcIqz_q-80" style="edgeStyle=orthogonalEdgeStyle;rounded=0;orthogonalLoop=1;jettySize=auto;html=1;exitX=0;exitY=1;exitDx=0;exitDy=0;entryX=0.38;entryY=-0.031;entryDx=0;entryDy=0;entryPerimeter=0;" parent="1" source="3Uw4bCDfF3RCXjcIqz_q-82" target="3Uw4bCDfF3RCXjcIqz_q-79" edge="1">
          <mxGeometry relative="1" as="geometry">
            <mxPoint x="740" y="630" as="targetPoint" />
          </mxGeometry>
        </mxCell>
        <mxCell id="3Uw4bCDfF3RCXjcIqz_q-88" value="разделитель" style="edgeLabel;html=1;align=center;verticalAlign=middle;resizable=0;points=[];" parent="3Uw4bCDfF3RCXjcIqz_q-80" connectable="0" vertex="1">
          <mxGeometry x="-0.4023" y="-1" relative="1" as="geometry">
            <mxPoint x="-35" y="13" as="offset" />
          </mxGeometry>
        </mxCell>
        <mxCell id="3Uw4bCDfF3RCXjcIqz_q-82" value="S" style="ellipse;whiteSpace=wrap;html=1;aspect=fixed;fillColor=#d5e8d4;strokeColor=#82b366;" parent="1" vertex="1">
          <mxGeometry x="720" y="550" width="40" height="40" as="geometry" />
        </mxCell>
        <mxCell id="3Uw4bCDfF3RCXjcIqz_q-95" style="edgeStyle=orthogonalEdgeStyle;rounded=0;orthogonalLoop=1;jettySize=auto;html=1;exitX=0.5;exitY=1;exitDx=0;exitDy=0;entryX=0.5;entryY=0;entryDx=0;entryDy=0;" parent="1" source="3Uw4bCDfF3RCXjcIqz_q-97" target="3Uw4bCDfF3RCXjcIqz_q-98" edge="1">
          <mxGeometry relative="1" as="geometry">
            <mxPoint x="725.5999999999999" y="838.1399999999999" as="targetPoint" />
          </mxGeometry>
        </mxCell>
        <mxCell id="3Uw4bCDfF3RCXjcIqz_q-97" value="S" style="ellipse;whiteSpace=wrap;html=1;aspect=fixed;fillColor=#d5e8d4;strokeColor=#82b366;" parent="1" vertex="1">
          <mxGeometry x="720" y="755" width="40" height="40" as="geometry" />
        </mxCell>
        <mxCell id="3Uw4bCDfF3RCXjcIqz_q-98" value="Z" style="ellipse;whiteSpace=wrap;html=1;aspect=fixed;fillColor=#d5e8d4;strokeColor=#82b366;" parent="1" vertex="1">
          <mxGeometry x="720" y="840" width="40" height="40" as="geometry" />
        </mxCell>
        <mxCell id="3Uw4bCDfF3RCXjcIqz_q-99" value="конец &lt;br&gt;файла" style="text;html=1;align=center;verticalAlign=middle;resizable=0;points=[];autosize=1;strokeColor=none;fillColor=none;" parent="1" vertex="1">
          <mxGeometry x="660" y="793" width="60" height="40" as="geometry" />
        </mxCell>
        <mxCell id="P_QY2ADZBLV3-lJH_5j4-5" value="операции" style="edgeStyle=orthogonalEdgeStyle;rounded=0;orthogonalLoop=1;jettySize=auto;html=1;exitX=0.5;exitY=1;exitDx=0;exitDy=0;entryX=0;entryY=0.5;entryDx=0;entryDy=0;" edge="1" parent="1" source="P_QY2ADZBLV3-lJH_5j4-1" target="P_QY2ADZBLV3-lJH_5j4-3">
          <mxGeometry x="0.5181" y="10" relative="1" as="geometry">
            <mxPoint as="offset" />
          </mxGeometry>
        </mxCell>
        <mxCell id="P_QY2ADZBLV3-lJH_5j4-7" value="операнды" style="edgeStyle=orthogonalEdgeStyle;rounded=0;orthogonalLoop=1;jettySize=auto;html=1;exitX=1;exitY=0.5;exitDx=0;exitDy=0;entryX=0;entryY=0.5;entryDx=0;entryDy=0;" edge="1" parent="1" source="P_QY2ADZBLV3-lJH_5j4-1" target="P_QY2ADZBLV3-lJH_5j4-2">
          <mxGeometry x="0.0361" y="10" relative="1" as="geometry">
            <mxPoint as="offset" />
          </mxGeometry>
        </mxCell>
        <mxCell id="P_QY2ADZBLV3-lJH_5j4-1" value="Входная строка" style="rounded=1;whiteSpace=wrap;html=1;" vertex="1" parent="1">
          <mxGeometry x="274" y="-560" width="120" height="60" as="geometry" />
        </mxCell>
        <mxCell id="P_QY2ADZBLV3-lJH_5j4-2" value="Выходная строка" style="rounded=1;whiteSpace=wrap;html=1;" vertex="1" parent="1">
          <mxGeometry x="560" y="-560" width="120" height="60" as="geometry" />
        </mxCell>
        <mxCell id="P_QY2ADZBLV3-lJH_5j4-6" value="операции" style="edgeStyle=orthogonalEdgeStyle;rounded=0;orthogonalLoop=1;jettySize=auto;html=1;exitX=1;exitY=0.5;exitDx=0;exitDy=0;entryX=0.5;entryY=1;entryDx=0;entryDy=0;" edge="1" parent="1" source="P_QY2ADZBLV3-lJH_5j4-3" target="P_QY2ADZBLV3-lJH_5j4-2">
          <mxGeometry x="-0.5556" y="10" relative="1" as="geometry">
            <mxPoint as="offset" />
          </mxGeometry>
        </mxCell>
        <mxCell id="P_QY2ADZBLV3-lJH_5j4-3" value="стек" style="rounded=1;whiteSpace=wrap;html=1;" vertex="1" parent="1">
          <mxGeometry x="410" y="-440" width="120" height="60" as="geometry" />
        </mxCell>
      </root>
    </mxGraphModel>
  </diagram>
</mxfile>
